<svg xmlns="http://www.w3.org/2000/svg" width="512" height="512" viewBox="0 0 511.999 511.999"><path d="M363.434 36.98C248.852-52.139 80.853 29.931 80.853 175.312c0 70.491 41.941 133.816 106.848 161.328a7.496 7.496 0 009.829-3.978 7.496 7.496 0 00-3.978-9.829c-59.352-25.157-97.703-83.062-97.703-147.52 0-133.035 153.695-207.912 258.378-126.497a7.494 7.494 0 0010.521-1.315 7.497 7.497 0 00-1.314-10.521zm20.276 18.471a7.499 7.499 0 00-10.933 10.265c27.97 29.79 43.372 68.713 43.372 109.596 0 64.458-38.351 122.362-97.703 147.523-7.497 3.176-5.178 14.403 2.929 14.403.977 0 1.969-.191 2.923-.597 64.908-27.514 106.848-90.839 106.848-161.329 0-44.713-16.847-87.28-47.436-119.861z" fill="red" data-original="#000000" xmlns="http://www.w3.org/2000/svg"/><path d="M256.001 48.861c-69.726 0-126.452 56.725-126.452 126.45 0 49.538 28.635 93.251 71.603 113.968a7.498 7.498 0 006.513-13.508c-38.344-18.486-63.119-57.92-63.119-100.459 0-61.457 50-111.454 111.456-111.454s111.454 49.999 111.454 111.454c0 42.542-24.775 81.974-63.119 100.459a7.497 7.497 0 00-3.498 10.01 7.495 7.495 0 0010.009 3.498c42.879-20.67 71.603-64.332 71.603-113.968 0-69.725-56.725-126.45-126.45-126.45z" fill="red" data-original="#000000" xmlns="http://www.w3.org/2000/svg"/><path d="M256.001 98.252c-42.492 0-77.062 34.569-77.062 77.06 0 26.412 13.31 50.692 35.607 64.95a7.494 7.494 0 0010.356-2.276 7.497 7.497 0 00-2.277-10.356c-17.964-11.488-28.689-31.046-28.689-52.316 0-34.223 27.843-62.065 62.065-62.065s62.065 27.843 62.065 62.065c0 21.268-10.726 40.825-28.691 52.315-6.311 4.036-3.396 13.815 4.047 13.815 6.331 0 39.641-23.917 39.641-66.131-.001-42.492-34.571-77.061-77.062-77.061z" fill="red" data-original="#000000" xmlns="http://www.w3.org/2000/svg"/><path d="M363.485 455.663h-8.823v-7.831c0-10.749-8.746-19.495-19.495-19.495h-3.912l-65.756-225.308c10.35-3.864 17.741-13.848 17.741-25.529 0-15.02-12.221-27.24-27.241-27.24s-27.241 12.22-27.241 27.24c0 11.681 7.391 21.664 17.741 25.528L180.74 428.336h-3.912c-10.749 0-19.495 8.746-19.495 19.495v7.831h-8.821c-10.974 0-19.901 8.927-19.901 19.899v16.537c0 10.973 8.928 19.9 19.901 19.9H313.01a7.497 7.497 0 007.498-7.498 7.497 7.497 0 00-7.498-7.498H148.515a4.91 4.91 0 01-4.905-4.904v-16.535a4.91 4.91 0 014.905-4.903h214.97a4.909 4.909 0 014.903 4.903V492.1a4.909 4.909 0 01-4.903 4.904h-22.146a7.497 7.497 0 00-7.498 7.498 7.497 7.497 0 007.498 7.498h22.146c10.973 0 19.899-8.928 19.899-19.9v-16.537c.001-10.973-8.926-19.9-19.899-19.9zm-60.908-72.066l-33.83-24.609 21.981-15.991 11.849 40.6zm-22.036-75.505l-13.158-11.518 7.803-6.83 5.355 18.348zm-36.785-130.591c0-6.751 5.493-12.244 12.245-12.244 6.752 0 12.245 5.493 12.245 12.244 0 6.752-5.492 12.245-12.245 12.245-6.751 0-12.245-5.493-12.245-12.245zm12.245 46.505l14.552 49.862L256 286.608l-14.552-12.739 14.553-49.863zm-19.186 65.738l7.802 6.829-13.156 11.518 5.354-18.347zM256 306.539l26.938 23.582-26.937 19.595-26.938-19.596L256 306.539zm-34.728 36.458l21.982 15.991-33.832 24.609 11.85-40.6zm-17.281 112.666h-31.659v-7.831a4.504 4.504 0 014.499-4.499h22.661a4.504 4.504 0 014.499 4.499v7.831zm89.02-7.831v7.831h-74.026v-7.831c0-10.749-8.745-19.495-19.495-19.495h-3.127l6.188-21.196L256 368.26l53.448 38.881 6.186 21.197h-3.128c-10.749 0-19.495 8.745-19.495 19.494zm46.655 7.831h-31.659v-7.831a4.504 4.504 0 014.499-4.499h22.661a4.504 4.504 0 014.499 4.499v7.831z" fill="red" data-original="#000000" xmlns="http://www.w3.org/2000/svg"/></svg>