<svg xmlns="http://www.w3.org/2000/svg" width="512" height="512"><g transform="translate(70)"><g xmlns="http://www.w3.org/2000/svg" id="surface1" fill="red"><path d="M304.453 72.871V58.31C304.453 26.156 276.06 0 241.156 0h-14.008c-19.316 0-36.628 8.023-48.25 20.629C167.352 8.023 150.148 0 130.95 0h-13.89C82.37 0 54.156 26.156 54.156 58.309V72.87H0V512h354.914V72.871zM324.914 224h-49.398c-6.727-14.703-16.664-27.637-28.91-37.906V102.87h78.308zm-40.695 30h40.695v30H284.13a108.347 108.347 0 001.094-15.32c0-4.98-.348-9.88-1.004-14.68zm-106.762 92.441c-42.879 0-77.766-34.886-77.766-77.765 0-42.88 34.887-77.766 77.766-77.766 42.879 0 77.766 34.887 77.766 77.766 0 42.883-34.887 77.765-77.766 77.765zm39.148-243.57v65.402c-12.14-4.75-25.343-7.359-39.148-7.359-13.805 0-27.008 2.61-39.148 7.36V102.87zM227.148 30h14.008c18.36 0 33.297 12.7 33.297 28.309V72.87h-80.601V58.31c0-15.61 14.937-28.309 33.296-28.309zM84.152 58.309C84.152 42.699 98.914 30 117.06 30h13.89c18.145 0 32.903 12.7 32.903 28.309V72.87H84.156V58.31zm24.157 44.562v83.223c-12.246 10.27-22.184 23.203-28.91 37.906H30V102.871zM70.785 284H30v-30h40.695c-.656 4.8-1.004 9.7-1.004 14.68 0 5.199.38 10.312 1.094 15.32zM30 482V314h49.7a108.448 108.448 0 0028.609 37.262V482zm108.309 0V369.078c12.14 4.75 25.343 7.363 39.148 7.363 13.805 0 27.008-2.613 39.148-7.363V482zm108.296 0V351.262A108.353 108.353 0 00275.211 314h49.703v168zm0 0" data-original="#000000"/><path d="M192.457 221.848h-30v61.832h61.348v-30h-31.348zm0 0" data-original="#000000"/></g></g></svg>