<svg xmlns="http://www.w3.org/2000/svg" width="512" height="512" viewBox="0 0 24 24"><path xmlns="http://www.w3.org/2000/svg" d="M5.99 18.51a.502.502 0 01-.354-.146C3.937 16.664 3 14.404 3 12s.937-4.664 2.637-6.363a.5.5 0 01.707.707C4.833 7.855 4 9.863 4 12s.833 4.145 2.344 5.656a.5.5 0 01-.354.854z" fill="red" data-original="#000000"/><path xmlns="http://www.w3.org/2000/svg" d="M3.87 20.63a.502.502 0 01-.354-.146C1.249 18.216 0 15.203 0 12s1.249-6.216 3.517-8.483a.5.5 0 01.707.707C2.145 6.302 1 9.064 1 12s1.145 5.698 3.224 7.776a.5.5 0 01-.354.854zm16.26 0a.5.5 0 01-.354-.853C21.855 17.698 23 14.936 23 12s-1.145-5.698-3.224-7.776a.5.5 0 01.707-.707C22.751 5.784 24 8.797 24 12s-1.249 6.216-3.517 8.483a.495.495 0 01-.353.147z" fill="red" data-original="#000000"/><path xmlns="http://www.w3.org/2000/svg" d="M18.01 18.51a.5.5 0 01-.354-.853C19.167 16.145 20 14.137 20 12s-.833-4.145-2.344-5.656a.5.5 0 01.707-.707C20.063 7.336 21 9.596 21 12s-.937 4.664-2.637 6.363a.495.495 0 01-.353.147zM9.573 20a.501.501 0 01-.482-.633L10.844 13H7.5a.5.5 0 01-.4-.799l5.983-8a.5.5 0 01.894.38L13.089 10H16.5a.501.501 0 01.396.805l-6.927 9a.5.5 0 01-.396.195zm-1.074-8H11.5a.502.502 0 01.482.633l-1.25 4.542L15.484 11H12.5a.499.499 0 01-.494-.581l.653-3.982z" fill="red" data-original="#000000"/></svg>