<svg xmlns="http://www.w3.org/2000/svg" width="512" height="512" viewBox="0 0 510 510"><g xmlns="http://www.w3.org/2000/svg" fill="red"><path d="M240 60.115h30v30h-30z" data-original="#000000"/><path d="M480 .115v161.924c-10.135-6.924-22.21-11.206-35.229-11.838-49.428-198.908-330.19-198.773-379.541 0C28.964 151.963 0 182.016 0 218.712v12.807c0 34.911 26.222 63.794 60 68.039v6.027c0 48.468 20.776 94.733 57.001 126.935l49.399 43.91c48.512 44.608 128.688 44.606 177.199 0l49.399-43.91C429.224 400.318 450 354.053 450 305.585v-6.027c33.778-4.245 60-33.128 60-68.039V.116h-30zM346.117 57.627c-17.614 16.161-33.564 33.653-47.552 52.187-25.306 33.534-61.554 33.899-87.135-.005-14.073-18.65-30.013-36.146-47.519-52.201 55.171-36.669 126.998-36.69 182.206.019zM30 231.518v-12.807c0-18.328 12.842-33.714 30-37.632v88.07c-17.158-3.917-30-19.303-30-37.631zm106.933 178.579C107.106 383.585 90 345.492 90 305.585v-110.47c0-46.434 19.287-88.441 50.261-118.453 17.497 15.65 33.35 32.831 47.223 51.217 14.505 19.223 32.767 31.523 52.517 35.669v315.46a103.226 103.226 0 01-53.668-25zm254.606-19.982H315v30h46.798l-38.13 33.893a103.23 103.23 0 01-53.668 25V360.115h90v-75h30v-90h-30v-30h-30v30h-30v90h30v45h-60V163.548c19.747-4.145 38.007-16.443 52.512-35.663 13.773-18.25 29.636-35.426 47.249-51.201C400.723 106.694 420 148.693 420 195.115v105c-.43 2.787 4.136 47.025-28.461 90zm-31.539-165v30h-30v-30zm120 6.403c0 18.328-12.842 33.714-30 37.632v-88.07c17.158 3.918 30 19.304 30 37.632z" data-original="#000000"/><path d="M165 195.115c-24.814 0-45 20.187-45 45 2.471 59.699 87.538 59.681 90 0 0-24.813-20.186-45-45-45zm0 60c-8.271 0-15-6.729-15-15 .823-19.9 29.18-19.894 30 0 0 8.272-6.729 15-15 15z" data-original="#000000"/></g></svg>