<svg xmlns="http://www.w3.org/2000/svg" width="512" height="512" viewBox="0 0 128 128"><path xmlns="http://www.w3.org/2000/svg" d="M119.708 74.854l-.006-.017-17.83-40.629a15.519 15.519 0 00-4.892-6.18l-3.2-7.281a10.286 10.286 0 00-19.7 4.132v7.957a15.46 15.46 0 00-2 7.613v3.87H55.92V40.45a15.457 15.457 0 00-2-7.613V24.88a10.286 10.286 0 00-19.7-4.133l-3.2 7.281a15.519 15.519 0 00-4.892 6.179L8.3 74.837l-.006.017a25.578 25.578 0 1047.624 13V59.815H72.08v28.039a25.583 25.583 0 1047.624-13zM75.58 40.984v-.53A12.04 12.04 0 0194.549 30.6h.006a12.029 12.029 0 014.112 5.015l1.829 4.17.007.013 11.907 27.134a25.537 25.537 0 00-36.831 8zM84.37 18.1a6.776 6.776 0 016.207 4.054l1.491 3.394a15.522 15.522 0 00-14.488 3.045V24.88a6.793 6.793 0 016.79-6.78zM27.494 39.8l.009-.015 1.83-4.171a12.05 12.05 0 0123.087 4.84v34.479a25.537 25.537 0 00-36.831-8zm9.929-17.65a6.786 6.786 0 0113 2.727v3.713a15.522 15.522 0 00-14.488-3.046zm-7.09 87.75a22.083 22.083 0 1122.084-22.08 22.108 22.108 0 01-22.084 22.08zM55.92 56.32v-8.5h16.16v8.5zm41.747 53.58a22.083 22.083 0 1122.083-22.08 22.109 22.109 0 01-22.083 22.08z" fill="red" data-original="#000000"/><path xmlns="http://www.w3.org/2000/svg" d="M97.667 68.237A19.583 19.583 0 10117.25 87.82a19.605 19.605 0 00-19.583-19.583zm0 35.667A16.083 16.083 0 11113.75 87.82a16.1 16.1 0 01-16.083 16.08zM30.333 68.237A19.583 19.583 0 1049.917 87.82a19.605 19.605 0 00-19.584-19.583zm0 35.667A16.083 16.083 0 1146.417 87.82a16.1 16.1 0 01-16.084 16.08z" fill="red" data-original="#000000"/></svg>