<?xml version="1.0"?>
<svg xmlns="http://www.w3.org/2000/svg" xmlns:xlink="http://www.w3.org/1999/xlink" xmlns:svgjs="http://svgjs.com/svgjs" version="1.1" width="512" height="512" x="0" y="0" viewBox="0 0 512 512" style="enable-background:new 0 0 512 512" xml:space="preserve" class=""><g><g xmlns="http://www.w3.org/2000/svg"><g><path d="m443.385 316.569.001-114.14c0-35.537-21.618-66.115-52.391-79.29 2.42-2.199 4.624-4.631 6.58-7.258h31.811c16.542 0 30-13.458 30-30s-13.458-30-30-30h-31.816c-9.183-12.332-23.87-20.335-40.392-20.335s-31.209 8.003-40.393 20.335h-25.611c-1.645 0-2.983-1.338-2.983-2.982v-20.14c0-18.064-14.695-32.759-32.757-32.759s-32.757 14.695-32.757 32.757v20.14c0 1.645-1.338 2.982-2.982 2.982h-24.923c-9.184-12.332-23.87-20.335-40.393-20.335s-31.209 8.003-40.392 20.335h-31.372c-16.542 0-30 13.458-30 30s13.458 30 30 30h31.368c1.956 2.627 4.16 5.059 6.58 7.258-30.773 13.175-52.391 43.753-52.391 79.29l.004 114.6c-8.291 4.062-14.014 12.586-14.014 22.425v19.317c0 9.838 5.723 18.362 14.014 22.425v78.286c0 28.959 23.561 52.52 52.52 52.52h67.37c28.959 0 52.52-23.561 52.52-52.52v-75.753h30.38v75.753c0 28.959 23.565 52.52 52.53 52.52h67.37c28.959 0 52.52-23.561 52.52-52.52v-77.826c8.825-3.851 15.011-12.656 15.011-22.884v-19.317c-.001-10.228-6.187-19.034-15.012-22.884zm-355.21-89.337h132.41v87.258h-132.41zm-14.014 131.538v-19.317c0-2.733 2.224-4.958 4.958-4.958h141.469v29.232h-141.47c-2.733 0-4.957-2.224-4.957-4.957zm166.424-44.275.003-112.067c0-35.538-21.618-66.115-52.392-79.29 2.42-2.199 4.624-4.631 6.58-7.258h122.005c1.956 2.627 4.16 5.059 6.58 7.258-30.774 13.175-52.392 43.753-52.392 79.29l-.004 112.067zm50.384 20h142.469c2.733 0 4.958 2.224 4.958 4.958v19.317c0 2.733-2.224 4.958-4.958 4.958h-.054-142.415zm132.417-132.067v4.804h-22.005c-5.523 0-10 4.477-10 10s4.477 10 10 10h22.004v87.258h-132.42v-87.258h22.416c5.523 0 10-4.477 10-10s-4.477-10-10-10h-22.411v-4.804c0-36.507 29.701-66.208 66.208-66.208s66.208 29.701 66.208 66.208zm-16.872-126.548h22.871c5.514 0 10 4.486 10 10s-4.486 10-10 10h-22.87c1.328-6.563 1.328-13.437-.001-20zm-49.336-20.335c17.26 0 31.298 15.139 30.278 32.161-.937 15.656-14.437 28.515-30.278 28.515-16.547 0-30.333-13.943-30.333-30.34 0-16.373 13.905-30.336 30.333-30.336zm-137.483 20.335c12.672 0 22.982-10.31 22.982-22.982v-20.14c0-7.035 5.723-12.757 12.757-12.757s12.757 5.723 12.757 12.757v20.14c0 12.672 10.31 22.982 22.983 22.982h16.667c-.655 3.234-1.001 6.579-1.001 10.003 0 3.422.346 6.765 1 9.997h-104.123c.654-3.232 1-6.575 1-9.997 0-3.424-.347-6.769-1.001-10.003zm-137.08 20c-5.514 0-10-4.486-10-10s4.486-10 10-10h22.428c-.655 3.234-1.001 6.579-1.001 10.003 0 3.422.346 6.765 1 9.997zm45.196 4.63c-2.453-4.454-3.766-9.543-3.766-14.63 0-16.381 13.775-30.335 30.334-30.335 16.552 0 30.336 13.976 30.336 30.335 0 16.361-13.774 30.34-30.336 30.34-11.427 0-21.395-6.353-26.568-15.71zm-39.64 101.918c0-36.507 29.701-66.208 66.208-66.208s66.208 29.701 66.208 66.208v4.804h-132.416zm132.414 257.052c0 17.932-14.588 32.52-32.52 32.52h-67.37c-17.932 0-32.52-14.588-32.52-32.52v-75.753h132.41zm20.003-124.985h30.382v29.232h-30.382zm182.797 124.985c0 17.932-14.588 32.52-32.52 32.52h-67.37c-17.937 0-32.53-14.588-32.53-32.52v-75.753h132.42z" fill="#ff0000" data-original="#000000" style="" class=""/><path d="m347.948 221.06c3.539 8.489 16.117 7.849 18.794-.928 2.584-8.474-6.825-15.932-14.489-11.593-4.353 2.465-6.195 7.905-4.305 12.521z" fill="#ff0000" data-original="#000000" style="" class=""/></g></g></g></svg>
