<?xml version="1.0"?>
<svg xmlns="http://www.w3.org/2000/svg" xmlns:xlink="http://www.w3.org/1999/xlink" xmlns:svgjs="http://svgjs.com/svgjs" version="1.1" width="512" height="512" x="0" y="0" viewBox="0 0 511.999 511.999" style="enable-background:new 0 0 512 512" xml:space="preserve"><g>
<g xmlns="http://www.w3.org/2000/svg">
	<g>
		<path d="M363.434,36.98C248.852-52.139,80.853,29.931,80.853,175.312c0,70.491,41.941,133.816,106.848,161.328    c3.806,1.616,8.212-0.16,9.829-3.978c1.617-3.812-0.165-8.214-3.978-9.829c-59.352-25.157-97.703-83.062-97.703-147.52    c0-133.035,153.695-207.912,258.378-126.497c3.27,2.543,7.979,1.956,10.521-1.315C367.291,44.232,366.702,39.522,363.434,36.98z" fill="#ff0000" data-original="#000000" style=""/>
	</g>
</g>
<g xmlns="http://www.w3.org/2000/svg">
	<g>
		<path d="M383.71,55.451c-2.836-3.02-7.58-3.169-10.599-0.334c-3.019,2.834-3.168,7.58-0.334,10.599    c27.97,29.79,43.372,68.713,43.372,109.596c0,64.458-38.351,122.362-97.703,147.523c-7.497,3.176-5.178,14.403,2.929,14.403    c0.977,0,1.969-0.191,2.923-0.597c64.908-27.514,106.848-90.839,106.848-161.329C431.146,130.599,414.299,88.032,383.71,55.451z" fill="#ff0000" data-original="#000000" style=""/>
	</g>
</g>
<g xmlns="http://www.w3.org/2000/svg">
	<g>
		<path d="M256.001,48.861c-69.726,0-126.452,56.725-126.452,126.45c0,49.538,28.635,93.251,71.603,113.968    c3.743,1.803,8.217,0.223,10.01-3.498c1.799-3.729,0.232-8.212-3.497-10.01c-38.344-18.486-63.119-57.92-63.119-100.459    c0-61.457,50-111.454,111.456-111.454s111.454,49.999,111.454,111.454c0,42.542-24.775,81.974-63.119,100.459    c-3.73,1.799-5.297,6.279-3.498,10.01c1.798,3.733,6.282,5.296,10.009,3.498c42.879-20.67,71.603-64.332,71.603-113.968    C382.451,105.586,325.726,48.861,256.001,48.861z" fill="#ff0000" data-original="#000000" style=""/>
	</g>
</g>
<g xmlns="http://www.w3.org/2000/svg">
	<g>
		<path d="M256.001,98.252c-42.492,0-77.062,34.569-77.062,77.06c0,26.412,13.31,50.692,35.607,64.95    c1.251,0.801,2.649,1.183,4.033,1.183c2.472,0,4.893-1.223,6.323-3.459c2.231-3.489,1.212-8.126-2.277-10.356    c-17.964-11.488-28.689-31.046-28.689-52.316c0-34.223,27.843-62.065,62.065-62.065s62.065,27.843,62.065,62.065    c0,21.268-10.726,40.825-28.691,52.315c-6.311,4.036-3.396,13.815,4.047,13.815c6.331,0,39.641-23.917,39.641-66.131    C333.062,132.821,298.492,98.252,256.001,98.252z" fill="#ff0000" data-original="#000000" style=""/>
	</g>
</g>
<g xmlns="http://www.w3.org/2000/svg">
	<g>
		<path d="M363.485,455.663h-8.823v-7.831c0-10.749-8.746-19.495-19.495-19.495h-3.912c-3.037-10.407-62.532-214.263-65.756-225.308    c10.35-3.864,17.741-13.848,17.741-25.529c0-15.02-12.221-27.24-27.241-27.24c-15.02,0-27.241,12.22-27.241,27.24    c0,11.681,7.391,21.664,17.741,25.528l-65.759,225.308h-3.912c-10.749,0-19.495,8.746-19.495,19.495v7.831h-8.821    c-10.974,0-19.901,8.927-19.901,19.899v16.537c0,10.973,8.928,19.9,19.901,19.9h164.498c4.142,0,7.498-3.356,7.498-7.498    c0-4.141-3.356-7.498-7.498-7.498H148.515c-2.704,0-4.905-2.199-4.905-4.904v-16.535c0-2.703,2.2-4.903,4.905-4.903    c6.126,0,213.795,0,214.97,0c2.703,0,4.903,2.199,4.903,4.903V492.1c0,2.704-2.199,4.904-4.903,4.904h-22.146    c-4.142,0-7.498,3.357-7.498,7.498c0,4.142,3.356,7.498,7.498,7.498h22.146c10.973,0,19.899-8.928,19.899-19.9v-16.537    C383.385,464.59,374.458,455.663,363.485,455.663z M302.577,383.597l-33.83-24.609l21.981-15.991L302.577,383.597z     M280.541,308.092l-13.158-11.518l7.803-6.83L280.541,308.092z M243.756,177.501c0-6.751,5.493-12.244,12.245-12.244    c6.752,0,12.245,5.493,12.245,12.244c0,6.752-5.492,12.245-12.245,12.245C249.25,189.746,243.756,184.253,243.756,177.501z     M256.001,224.006l14.552,49.862L256,286.608l-14.552-12.739L256.001,224.006z M236.815,289.744l7.802,6.829l-13.156,11.518    L236.815,289.744z M256,306.539l26.938,23.582l-26.937,19.595l-26.938-19.596L256,306.539z M221.272,342.997l21.982,15.991    l-33.832,24.609L221.272,342.997z M203.991,455.663h-31.659v-7.831c0-2.48,2.018-4.499,4.499-4.499h22.661    c2.48,0,4.499,2.018,4.499,4.499V455.663z M293.011,447.832v7.831h-74.026v-7.831c0-10.749-8.745-19.495-19.495-19.495h-3.127    l6.188-21.196L256,368.26l53.448,38.881l6.186,21.197h-3.128C301.757,428.338,293.011,437.083,293.011,447.832z M339.666,455.663    h-31.659v-7.831c0-2.48,2.017-4.499,4.499-4.499h22.661c2.481,0,4.499,2.018,4.499,4.499V455.663z" fill="#ff0000" data-original="#000000" style=""/>
	</g>
</g>
<g xmlns="http://www.w3.org/2000/svg">
</g>
<g xmlns="http://www.w3.org/2000/svg">
</g>
<g xmlns="http://www.w3.org/2000/svg">
</g>
<g xmlns="http://www.w3.org/2000/svg">
</g>
<g xmlns="http://www.w3.org/2000/svg">
</g>
<g xmlns="http://www.w3.org/2000/svg">
</g>
<g xmlns="http://www.w3.org/2000/svg">
</g>
<g xmlns="http://www.w3.org/2000/svg">
</g>
<g xmlns="http://www.w3.org/2000/svg">
</g>
<g xmlns="http://www.w3.org/2000/svg">
</g>
<g xmlns="http://www.w3.org/2000/svg">
</g>
<g xmlns="http://www.w3.org/2000/svg">
</g>
<g xmlns="http://www.w3.org/2000/svg">
</g>
<g xmlns="http://www.w3.org/2000/svg">
</g>
<g xmlns="http://www.w3.org/2000/svg">
</g>
</g></svg>
