<?xml version="1.0"?>
<svg xmlns="http://www.w3.org/2000/svg" xmlns:xlink="http://www.w3.org/1999/xlink" xmlns:svgjs="http://svgjs.com/svgjs" version="1.1" width="512" height="512" x="0" y="0" viewBox="0 0 366.736 366.736" style="enable-background:new 0 0 512 512" xml:space="preserve" class=""><g>
<g xmlns="http://www.w3.org/2000/svg">
	<path d="M338.11,75.789h-77.312V61.955c0-16.314-13.271-29.587-29.586-29.587h-95.688c-16.313,0-29.586,13.272-29.586,29.587   v13.834H28.627C12.842,75.789,0,88.63,0,104.414v201.328c0,15.784,12.842,28.626,28.627,28.626h309.482   c15.785,0,28.627-12.842,28.627-28.626V104.414C366.737,88.631,353.896,75.789,338.11,75.789z M130.939,61.955   c0-2.529,2.058-4.587,4.586-4.587h95.688c2.528,0,4.586,2.058,4.586,4.587v13.834h-104.86V61.955z M28.628,100.789H338.11   c2,0,3.627,1.626,3.627,3.625v65.598c-38.738,14.37-97.169,22.858-158.474,22.858c-61.17,0-119.521-8.459-158.263-22.781v-65.675   C25.001,102.415,26.628,100.789,28.628,100.789z M338.11,309.368H28.628c-2,0-3.627-1.626-3.627-3.626V196.575   c35.458,11.697,82.077,19.008,132.882,20.84c-0.003,0.145-0.021,0.285-0.021,0.432v5.513c0,10.335,8.408,18.743,18.744,18.743   h13.527c10.336,0,18.744-8.408,18.744-18.743v-5.513c0-0.147-0.02-0.291-0.021-0.438c50.837-1.848,97.449-9.18,132.883-20.9   v109.234C341.737,307.742,340.11,309.368,338.11,309.368z" fill="#ff0000" data-original="#000000" style="" class=""/>
</g>
<g xmlns="http://www.w3.org/2000/svg">
</g>
<g xmlns="http://www.w3.org/2000/svg">
</g>
<g xmlns="http://www.w3.org/2000/svg">
</g>
<g xmlns="http://www.w3.org/2000/svg">
</g>
<g xmlns="http://www.w3.org/2000/svg">
</g>
<g xmlns="http://www.w3.org/2000/svg">
</g>
<g xmlns="http://www.w3.org/2000/svg">
</g>
<g xmlns="http://www.w3.org/2000/svg">
</g>
<g xmlns="http://www.w3.org/2000/svg">
</g>
<g xmlns="http://www.w3.org/2000/svg">
</g>
<g xmlns="http://www.w3.org/2000/svg">
</g>
<g xmlns="http://www.w3.org/2000/svg">
</g>
<g xmlns="http://www.w3.org/2000/svg">
</g>
<g xmlns="http://www.w3.org/2000/svg">
</g>
<g xmlns="http://www.w3.org/2000/svg">
</g>
</g></svg>
