<?xml version="1.0"?>
<svg xmlns="http://www.w3.org/2000/svg" xmlns:xlink="http://www.w3.org/1999/xlink" xmlns:svgjs="http://svgjs.com/svgjs" version="1.1" width="512" height="512" x="0" y="0" viewBox="0 0 512 512" style="enable-background:new 0 0 512 512" xml:space="preserve"><g>
<g xmlns="http://www.w3.org/2000/svg">
	<g>
		<path d="M356.012,188.216c-3.504-4.188-9.73-4.793-13.981-1.334c-4.275,3.48-4.925,9.769-1.454,14.053    c0.119,0.148,0.265,0.317,0.393,0.458c1.974,2.171,4.683,3.273,7.402,3.273c2.4,0,4.808-0.859,6.724-2.601    C359.091,198.433,359.469,192.307,356.012,188.216z" fill="#ff0000" data-original="#000000" style=""/>
	</g>
</g>
<g xmlns="http://www.w3.org/2000/svg">
	<g>
		<path d="M277.035,386.466c3.952,0.249,7.874,0.372,11.77,0.372c44.714-0.001,85.41-16.268,115.596-46.452    c7.942-7.942,15.716-23.722,7.648-53.788c-5.551-20.679-17.81-45.193-35.452-70.894c-3.126-4.553-9.35-5.711-13.903-2.584    c-4.554,3.125-5.711,9.351-2.585,13.904c16.373,23.852,27.653,46.244,32.621,64.757c4.363,16.265,3.485,28.504-2.475,34.463    c-9.001,9.002-31.411,6.318-59.94-7.177c-21.334-10.09-44.474-25.304-67.503-44.219c13.567-16.59,14.579-40.081,3.042-57.702    l52.044-52.044c4.575,2.32,9.589,3.487,14.605,3.487c8.259,0,16.518-3.144,22.805-9.43c12.573-12.575,12.573-33.034,0-45.608    c-12.574-12.573-33.035-12.574-45.609,0c-10.105,10.106-12.082,25.303-5.943,37.409L251.716,203    c-7.889-5.186-17.118-7.975-26.779-7.975c-11.38,0-22.164,3.864-30.86,10.965c-18.659-22.808-33.679-45.704-43.672-66.832    c-13.494-28.532-16.178-50.939-7.177-59.94c13.463-13.465,60.732-1.613,121.811,46.872c4.326,3.433,10.617,2.711,14.05-1.615    c3.434-4.326,2.711-10.616-1.614-14.05c-29.987-23.804-59.258-41.065-84.646-49.917c-36.254-12.642-54.668-4.5-63.734,4.56    c-0.003,0.003-0.006,0.005-0.008,0.007c-32.814,32.815-49.18,78.047-46.08,127.364c3.069,48.844,24.918,95.902,61.521,132.506    c6.492,6.492,13.319,12.51,20.42,18.051c-0.026,0.076-0.059,0.148-0.083,0.225l-27.839,88.704h-23.807    c-38.64,0-70.075,31.436-70.075,70.075c0,5.522,4.478,10,10,10h273.815c5.522,0,10-4.478,10-10    c0-38.64-31.436-70.075-70.074-70.075h-32.787v-53.106C248.1,382.959,262.487,385.552,277.035,386.466z M323.841,127.691    c2.388-2.389,5.524-3.583,8.662-3.583c3.137,0,6.274,1.194,8.662,3.582c4.776,4.776,4.776,12.548,0,17.324    c-4.775,4.776-12.549,4.776-17.324,0C319.064,140.239,319.064,132.467,323.841,127.691z M224.937,215.023    c7.714,0,14.967,3.002,20.423,8.454c0.003,0.003,0.006,0.007,0.009,0.01c0.003,0.003,0.007,0.006,0.01,0.009    c10.447,10.457,11.189,26.988,2.241,38.316c-6.91-6.182-13.772-12.668-20.533-19.428c-6.971-6.971-13.65-14.051-20.006-21.18    C212.154,217.201,218.376,215.023,224.937,215.023z M182.098,355.099c10.255,6.508,20.962,12.075,31.999,16.646v60.18h-0.001    h-56.11L182.098,355.099z M266.883,451.925c24.188,0,44.426,17.237,49.071,40.075H64.145    c4.646-22.838,24.884-40.075,49.072-40.075H266.883z M158.669,310.802c-33.157-33.157-52.94-75.638-55.704-119.618    c-1.833-29.183,4.008-56.676,16.707-80.281c2.102,11.059,6.315,23.405,12.653,36.805c16.318,34.501,44.95,73.147,80.621,108.818    c35.672,35.672,74.317,64.304,108.818,80.621c13.374,6.326,25.698,10.534,36.741,12.641    C298.268,382.032,215.854,367.988,158.669,310.802z" fill="#ff0000" data-original="#000000" style=""/>
	</g>
</g>
<g xmlns="http://www.w3.org/2000/svg">
	<g>
		<path d="M332.655,53.385c-5.522,0-10,4.477-10,10s4.478,10,10,10c34.637,0,62.816,28.179,62.816,62.816c0,5.523,4.478,10,10,10    c5.522,0,10-4.477,10-10C415.472,90.536,378.32,53.385,332.655,53.385z" fill="#ff0000" data-original="#000000" style=""/>
	</g>
</g>
<g xmlns="http://www.w3.org/2000/svg">
	<g>
		<path d="M332.655,0c-5.522,0-10,4.477-10,10s4.478,10,10,10c64.073,0,116.201,52.127,116.201,116.201c0,5.523,4.478,10,10,10    c5.522,0,10-4.477,10-10C468.856,61.1,407.757,0,332.655,0z" fill="#ff0000" data-original="#000000" style=""/>
	</g>
</g>
<g xmlns="http://www.w3.org/2000/svg">
</g>
<g xmlns="http://www.w3.org/2000/svg">
</g>
<g xmlns="http://www.w3.org/2000/svg">
</g>
<g xmlns="http://www.w3.org/2000/svg">
</g>
<g xmlns="http://www.w3.org/2000/svg">
</g>
<g xmlns="http://www.w3.org/2000/svg">
</g>
<g xmlns="http://www.w3.org/2000/svg">
</g>
<g xmlns="http://www.w3.org/2000/svg">
</g>
<g xmlns="http://www.w3.org/2000/svg">
</g>
<g xmlns="http://www.w3.org/2000/svg">
</g>
<g xmlns="http://www.w3.org/2000/svg">
</g>
<g xmlns="http://www.w3.org/2000/svg">
</g>
<g xmlns="http://www.w3.org/2000/svg">
</g>
<g xmlns="http://www.w3.org/2000/svg">
</g>
<g xmlns="http://www.w3.org/2000/svg">
</g>
</g></svg>
