<?xml version="1.0"?>
<svg xmlns="http://www.w3.org/2000/svg" xmlns:xlink="http://www.w3.org/1999/xlink" xmlns:svgjs="http://svgjs.com/svgjs" version="1.1" width="512" height="512" x="0" y="0" viewBox="0 0 512 512" style="enable-background:new 0 0 512 512" xml:space="preserve" class=""><g transform="matrix(1,0,0,1,70,0)">
<g xmlns="http://www.w3.org/2000/svg" id="surface1">
<path d="M 304.453125 72.871094 L 304.453125 58.308594 C 304.453125 26.15625 276.058594 0 241.15625 0 L 227.148438 0 C 207.832031 0 190.519531 8.023438 178.898438 20.628906 C 167.351562 8.023438 150.148438 0 130.949219 0 L 117.058594 0 C 82.371094 0 54.15625 26.15625 54.15625 58.308594 L 54.15625 72.871094 L 0 72.871094 L 0 512 L 354.914062 512 L 354.914062 72.871094 Z M 324.914062 224 L 275.515625 224 C 268.789062 209.296875 258.851562 196.363281 246.605469 186.09375 L 246.605469 102.871094 L 324.914062 102.871094 Z M 284.21875 254 L 324.914062 254 L 324.914062 284 L 284.128906 284 C 284.84375 278.992188 285.222656 273.878906 285.222656 268.679688 C 285.222656 263.699219 284.875 258.800781 284.21875 254 Z M 177.457031 346.441406 C 134.578125 346.441406 99.691406 311.554688 99.691406 268.675781 C 99.691406 225.796875 134.578125 190.910156 177.457031 190.910156 C 220.335938 190.910156 255.222656 225.796875 255.222656 268.675781 C 255.222656 311.558594 220.335938 346.441406 177.457031 346.441406 Z M 216.605469 102.871094 L 216.605469 168.273438 C 204.464844 163.523438 191.261719 160.914062 177.457031 160.914062 C 163.652344 160.914062 150.449219 163.523438 138.308594 168.273438 L 138.308594 102.871094 Z M 227.148438 30 L 241.15625 30 C 259.515625 30 274.453125 42.699219 274.453125 58.308594 L 274.453125 72.871094 L 193.851562 72.871094 L 193.851562 58.308594 C 193.851562 42.699219 208.789062 30 227.148438 30 Z M 84.152344 58.308594 C 84.152344 42.699219 98.914062 30 117.058594 30 L 130.949219 30 C 149.09375 30 163.851562 42.699219 163.851562 58.308594 L 163.851562 72.871094 L 84.15625 72.871094 L 84.15625 58.308594 Z M 108.308594 102.871094 L 108.308594 186.09375 C 96.0625 196.363281 86.125 209.296875 79.398438 224 L 30 224 L 30 102.871094 Z M 70.785156 284 L 30 284 L 30 254 L 70.695312 254 C 70.039062 258.800781 69.691406 263.699219 69.691406 268.679688 C 69.691406 273.878906 70.070312 278.992188 70.785156 284 Z M 30 482 L 30 314 L 79.699219 314 C 86.421875 328.433594 96.242188 341.140625 108.308594 351.261719 L 108.308594 482 Z M 138.308594 482 L 138.308594 369.078125 C 150.449219 373.828125 163.652344 376.441406 177.457031 376.441406 C 191.261719 376.441406 204.464844 373.828125 216.605469 369.078125 L 216.605469 482 Z M 246.605469 482 L 246.605469 351.261719 C 258.671875 341.144531 268.492188 328.433594 275.210938 314 L 324.914062 314 L 324.914062 482 Z M 246.605469 482 " style="" fill="#ff0000" data-original="#000000" class=""/>
<path d="M 192.457031 221.847656 L 162.457031 221.847656 L 162.457031 283.679688 L 223.804688 283.679688 L 223.804688 253.679688 L 192.457031 253.679688 Z M 192.457031 221.847656 " style="" fill="#ff0000" data-original="#000000" class=""/>
</g>
</g></svg>
