<?xml version="1.0"?>
<svg xmlns="http://www.w3.org/2000/svg" xmlns:xlink="http://www.w3.org/1999/xlink" xmlns:svgjs="http://svgjs.com/svgjs" version="1.1" width="512" height="512" x="0" y="0" viewBox="0 0 512 512" style="enable-background:new 0 0 512 512" xml:space="preserve" class=""><g><path xmlns="http://www.w3.org/2000/svg" d="m344 144v16h-16v16h16v16h16v-16h16v-16h-16v-16z" fill="#ff0000" data-original="#000000" style=""/><path xmlns="http://www.w3.org/2000/svg" d="m288 192h16v16h-16z" fill="#ff0000" data-original="#000000" style=""/><path xmlns="http://www.w3.org/2000/svg" d="m16.57227 397.02881a7.99957 7.99957 0 0 0 7.42773 10.97119h464a7.99928 7.99928 0 0 0 7.15527-11.57764l-40-80a7.99979 7.99979 0 0 0 -7.15527-4.42236h-27.05591l-37.78882-75.57764a7.99979 7.99979 0 0 0 -7.15527-4.42236h-115.8833l-37.60693-52.6499a7.99923 7.99923 0 0 0 -6.50977-3.3501h-56a7.99855 7.99855 0 0 0 -6.35449 3.14062l-104 136 .01025.00782a7.97384 7.97384 0 0 0 -1.08349 1.88037zm19.24414-5.02881 25.59959-64h45.168l25.59961 64zm295.2395-144-32 64h-83.69068l44.80005-64zm-126.89063 80h54.89063l-32 64h-67.69068zm40.77906 64 32-64h22.11132l32 64zm71.99975-64h86.11182l-32 64h-22.11182zm158.11157 64h-86.11132l32-64h22.11132zm-126.11132-144h22.11132l32 64h-86.11132zm-102.74219-7.95312-100.27 143.24267-24.81641-62.041 94.66455-123.79212zm-82.24903-48.04688h35.85888l-91.76488 120h-35.85889z" fill="#ff0000" data-original="#000000" style=""/><path xmlns="http://www.w3.org/2000/svg" d="m290.9707 128.57227-25.3877-10.15527-10.15527-25.38819a7.99991 7.99991 0 0 0 -14.85546 0l-10.15527 25.38819-25.3877 10.15527a7.99963 7.99963 0 0 0 0 14.85546l25.3877 10.15527 10.15528 25.38818a7.99991 7.99991 0 0 0 14.85546 0l10.15526-25.38818 25.38769-10.15528a7.99963 7.99963 0 0 0 0-14.85546zm-34.5127 11.42873a8 8 0 0 0 -4.457 4.45654l-4.001 10.00193-4.001-10.002a8 8 0 0 0 -4.457-4.45654l-10.002-4.00093 10.00195-4.001a8 8 0 0 0 4.457-4.45654l4.00105-10.00193 4.001 10.00195a8 8 0 0 0 4.457 4.45654l10.002 4.00098z" fill="#ff0000" data-original="#000000" style=""/></g></svg>
