<?xml version="1.0"?>
<svg xmlns="http://www.w3.org/2000/svg" xmlns:xlink="http://www.w3.org/1999/xlink" xmlns:svgjs="http://svgjs.com/svgjs" version="1.1" width="512" height="512" x="0" y="0" viewBox="0 0 512.17 512.17" style="enable-background:new 0 0 512 512" xml:space="preserve"><g>
<g xmlns="http://www.w3.org/2000/svg">
	<g>
		<path style="" d="M510.427,297.333c-2.438-6.515-7.652-11.939-13.993-14.762l-20.827-10.032l-42.388-20.425    c-0.005-0.003-0.01-0.006-0.015-0.008l-2.71-1.305l-1.444-0.696l-113.665-59.249c-3-1.606-6.097-3.023-9.266-4.245    c-9.504-3.665-19.663-5.575-29.863-5.575h-108.16c-0.034,0-0.068,0.004-0.103,0.004h-48.127h-12.35    c-1.477,0-2.935,0.327-4.27,0.957l-49.433,23.338c-0.001,0-0.002,0.001-0.003,0.001l-42.053,19.854    c-6.276,2.962-10.562,8.99-11.42,15.779C0.127,241.779,0,242.618,0,243.479v55.404c0,0.615,0.064,1.213,0.17,1.797v20    c0,11.148,9.069,20.218,20.218,20.218h34.528l17.023,15.004l22.216,32.088c1.868,2.698,4.94,4.308,8.222,4.308h54.412    c3.448,0,6.652-1.776,8.479-4.7l17.229-27.565h142.921l19.356,27.958c1.868,2.698,4.94,4.308,8.222,4.308h54.412    c3.448,0,6.652-1.776,8.48-4.7l17.228-27.565h52.556c14.61,0,26.497-11.887,26.497-26.497v-26.748    C512.17,303.493,511.559,300.298,510.427,297.333z M467.54,290.853h-23.492c-2.855,0-5.178-2.322-5.178-5.178v-8.632    L467.54,290.853z M276.255,201.039c7.533,0,15.032,1.378,22.073,4.012c2.62,0.981,5.179,2.131,7.649,3.456    c0.035,0.019,0.07,0.037,0.105,0.055l81.635,42.553H281.606l-20.988-15.673c-1.729-1.29-3.827-1.987-5.983-1.987h-26.229    l-34.865-32.416H276.255z M115.812,201.039l33.415,32.416H88.394l-13.97-15.734l35.334-16.682H115.812z M20.17,264.771    l12.766,10.484v13.629H20.17V264.771z M151.246,372.298h-43.63l-8.492-12.266h59.788L151.246,372.298z M98.08,340.032    l7.666-12.266h43.631l8.492,12.266H98.08z M401.867,372.298h-43.631l-8.492-12.266h59.789L401.867,372.298z M348.701,340.032    l7.666-12.266h43.629l8.492,12.266H348.701z M485.673,340.032h-52.858l-19.357-27.958c-1.868-2.698-4.94-4.308-8.222-4.308    h-54.411c-3.448,0-6.652,1.776-8.479,4.7l-17.229,27.565H182.194l-19.356-27.958c-1.868-2.698-4.94-4.308-8.222-4.308h-54.412    c-3.448,0-6.652,1.776-8.48,4.7l-13.788,22.061l-12.63-11.132c-1.827-1.61-4.178-2.498-6.612-2.498H20.388    c-0.12,0-0.218-0.098-0.218-0.218v-11.797h22.766c5.522,0,10-4.478,10-10v-28.356c0-2.993-1.341-5.828-3.653-7.728l-25.677-21.087    l31.973-15.095l20.843,23.477c1.898,2.137,4.62,3.36,7.479,3.36h89.997c4.072,0,7.737-2.47,9.268-6.243    c1.529-3.774,0.618-8.099-2.305-10.935l-36.324-35.238h19.633l53.497,49.739c1.851,1.721,4.283,2.677,6.81,2.677h26.839    l20.988,15.673c1.729,1.29,3.827,1.987,5.983,1.987H418.87v14.56c0,13.883,11.295,25.178,25.178,25.178h48.122v22.683    C492.17,337.118,489.256,340.032,485.673,340.032z" fill="#ff0000" data-original="#000000"/>
		<path style="" d="M176.49,80.65c16.943-16.935,39.462-26.262,63.41-26.262c23.989,0,46.527,9.352,63.464,26.331    c1.953,1.959,4.517,2.938,7.08,2.938c2.555,0,5.11-0.973,7.062-2.92c3.911-3.9,3.919-10.231,0.019-14.142    c-20.716-20.77-48.283-32.208-77.624-32.208c-29.288,0-56.829,11.406-77.549,32.117c-3.906,3.904-3.907,10.235-0.003,14.142    C166.251,84.553,172.584,84.556,176.49,80.65z" fill="#ff0000" data-original="#000000"/>
		<path style="" d="M278.215,115.888c2.552,0,5.105-0.971,7.057-2.914c3.913-3.897,3.926-10.229,0.029-14.143    c-12.11-12.161-28.234-18.858-45.4-18.858c-17.111,0-33.203,6.663-45.312,18.761c-3.906,3.904-3.909,10.235-0.006,14.143    c3.904,3.905,10.235,3.908,14.143,0.006c8.331-8.325,19.402-12.909,31.175-12.909c11.809,0,22.898,4.606,31.229,12.972    C273.083,114.906,275.648,115.888,278.215,115.888z" fill="#ff0000" data-original="#000000"/>
		<path style="" d="M248.215,128.465c-2.231-3.314-6.347-5.029-10.271-4.25c-4.173,0.829-7.379,4.296-7.959,8.496    c-0.578,4.182,1.711,8.411,5.49,10.265c3.704,1.817,8.248,1.154,11.263-1.671C250.26,138.004,250.893,132.478,248.215,128.465z" fill="#ff0000" data-original="#000000"/>
		<path style="" d="M313.975,288.909h-50.184l-17.393-15.405c-1.829-1.62-4.188-2.515-6.631-2.515h-77.919    c-5.522,0-10,4.478-10,10s4.478,10,10,10h74.127l17.393,15.405c1.829,1.62,4.188,2.515,6.631,2.515h53.976c5.522,0,10-4.478,10-10    S319.497,288.909,313.975,288.909z" fill="#ff0000" data-original="#000000"/>
		<path style="" d="M126.045,272.675c-3.574-2.385-8.396-2.179-11.765,0.481c-3.313,2.616-4.638,7.234-3.192,11.203    c1.433,3.931,5.21,6.626,9.407,6.626c4.133,0,7.877-2.621,9.35-6.472C131.476,280.248,129.873,275.184,126.045,272.675z" fill="#ff0000" data-original="#000000"/>
		<path style="" d="M115.146,403.819c-5.522,0-10,4.478-10,10v21.585c0,5.522,4.478,10,10,10s10-4.478,10-10v-21.585    C125.146,408.297,120.669,403.819,115.146,403.819z" fill="#ff0000" data-original="#000000"/>
		<path style="" d="M148.077,414.612c-5.522,0-10,4.478-10,10v43.169c0,5.522,4.478,10,10,10s10-4.478,10-10v-43.169    C158.077,419.09,153.6,414.612,148.077,414.612z" fill="#ff0000" data-original="#000000"/>
		<path style="" d="M363.263,403.819c-5.522,0-10,4.478-10,10v44.519c0,5.522,4.478,10,10,10s10-4.478,10-10v-44.519    C373.263,408.297,368.785,403.819,363.263,403.819z" fill="#ff0000" data-original="#000000"/>
		<path style="" d="M397.025,412.439c-5.522,0-10,4.478-10,10v17.886c0,5.522,4.478,10,10,10s10-4.478,10-10v-17.886    C407.025,416.917,402.548,412.439,397.025,412.439z" fill="#ff0000" data-original="#000000"/>
	</g>
</g>















</g></svg>
