<?xml version="1.0"?>
<svg xmlns="http://www.w3.org/2000/svg" xmlns:xlink="http://www.w3.org/1999/xlink" xmlns:svgjs="http://svgjs.com/svgjs" version="1.1" width="512" height="512" x="0" y="0" viewBox="0 0 512 512" style="enable-background:new 0 0 512 512" xml:space="preserve" class=""><g><path xmlns="http://www.w3.org/2000/svg" d="m481.269531 251.300781c19.882813-26.996093 30.730469-59.824219 30.730469-93.542969 0-27.082031-6.980469-53.796874-20.183594-77.261718-2.707031-4.8125-8.804687-6.519532-13.621094-3.808594-4.8125 2.707031-6.515624 8.804688-3.808593 13.617188 11.523437 20.476562 17.613281 43.800781 17.613281 67.453124 0 32.554688-11.574219 64.148438-32.59375 88.96875-1.855469 2.191407-2.679688 5.082032-2.261719 7.925782.421875 2.84375 2.046875 5.367187 4.457031 6.929687 19.035157 12.320313 30.398438 33.175781 30.398438 55.789063 0 29.574218-19.863281 55.851562-48.304688 63.898437-3.628906 1.027344-6.371093 4.011719-7.09375 7.710938-11.621093 59.695312-64.269531 103.019531-125.179687 103.019531-26.953125 0-52.71875-8.308594-74.507813-24.023438-3.914062-2.820312-9.285156-2.445312-12.769531.890626-7.488281 7.179687-17.316406 11.132812-27.667969 11.132812-15.972656 0-30.390624-9.480469-36.730468-24.144531-1.867188-4.3125-6.480469-6.746094-11.089844-5.847657-6.800781 1.320313-13.75 1.992188-20.65625 1.992188-59.300781 0-107.542969-48.242188-107.542969-107.546875 0-28.796875 11.238281-55.855469 31.644531-76.1875 3.828126-3.8125 3.933594-9.972656.242188-13.914063-20.855469-22.285156-32.34375-51.371093-32.34375-81.894531 0-66.101562 53.777344-119.878906 119.878906-119.878906 30.96875 0 60.355469 11.769531 82.75 33.144531 2.167969 2.0625 5.140625 3.050782 8.109375 2.691406 2.972657-.359374 5.621094-2.03125 7.230469-4.554687 25.46875-39.988281 68.9375-63.859375 116.273438-63.859375 23.5 0 46.699218 6.019531 67.078124 17.402344 4.824219 2.695312 10.914063.96875 13.609376-3.851563 2.691406-4.820312.96875-10.914062-3.855469-13.605469-23.355469-13.050781-49.921875-19.945312-76.832031-19.945312-50.324219 0-96.824219 23.554688-126.558594 63.558594-24.816406-20.054688-55.578125-30.980469-87.804688-30.980469-77.128906 0-139.878906 62.75-139.878906 139.878906 0 32.480469 11.148438 63.566407 31.570312 88.511719-20.128906 23.175781-31.113281 52.480469-31.113281 83.484375 0 70.328125 57.214844 127.546875 127.542969 127.546875 5.671875 0 11.371094-.382812 17.015625-1.136719 10.742187 17.921875 30.179687 29.136719 51.460937 29.136719 12.765626 0 24.996094-4.003906 35.183594-11.402344 23.785156 15.335938 51.195313 23.402344 79.761719 23.402344 68.460937 0 127.898437-47.324219 143.554687-113.363281 33.863282-12.257813 57.023438-44.835938 57.023438-81.265625 0-25.75-11.316406-49.742188-30.730469-66.070313zm0 0" fill="#ff0000" data-original="#000000" style="" class=""/><path xmlns="http://www.w3.org/2000/svg" d="m451.800781 60.496094c1.945313 1.945312 4.484375 2.914062 7.027344 2.914062 2.5625 0 5.125-.980468 7.085937-2.941406 3.90625-3.90625 3.875-10.265625-.027343-14.171875l-.089844-.089844c-3.90625-3.90625-10.210937-3.878906-14.117187.027344s-3.875 10.265625.027343 14.171875zm0 0" fill="#ff0000" data-original="#000000" style="" class=""/><path xmlns="http://www.w3.org/2000/svg" d="m348.871094 410.292969c5.90625 5.90625 13.761718 9.160156 22.117187 9.160156s16.210938-3.253906 22.121094-9.160156c4.128906-4.132813 6.964844-9.257813 8.296875-14.792969 5.535156-1.332031 10.660156-4.167969 14.792969-8.296875 5.90625-5.90625 9.160156-13.765625 9.160156-22.117187 0-8.355469-3.253906-16.210938-9.160156-22.121094-9.523438-9.519532-23.933594-11.582032-35.558594-6.097656l-20.792969-20.796876c5.527344-6.167968 9.867188-13.421874 12.648438-21.429687 3.613281-10.390625 2.480468-21.785156-3.101563-31.261719-2.800781-4.757812-3.125-10.742187-.859375-16.011718 4.820313-11.222657 7.265625-23.023438 7.265625-35.070313 0-13.96875-3.320312-27.289063-9.320312-39.429687l12.78125-12.78125c11.628906 5.484374 26.039062 3.421874 35.558593-6.097657 12.195313-12.199219 12.195313-32.042969 0-44.238281-4.128906-4.132812-9.253906-6.964844-14.792968-8.296875-1.332032-5.539063-4.167969-10.664063-8.296875-14.792969-5.90625-5.90625-13.761719-9.164062-22.117188-9.164062s-16.210937 3.257812-22.121093 9.164062c-9.519532 9.523438-11.582032 23.933594-6.097657 35.558594l-10.515625 10.515625c-20.601562-14.101563-46.769531-22.558594-75.222656-22.558594s-54.621094 8.457031-75.222656 22.558594l-10.511719-10.515625c5.480469-11.625 3.421875-26.035156-6.101563-35.558594-5.910156-5.90625-13.765624-9.164062-22.121093-9.164062-8.351563 0-16.210938 3.257812-22.117188 9.164062-4.128906 4.128906-6.964843 9.253906-8.296875 14.792969-5.539062 1.332031-10.664062 4.167969-14.792968 8.296875-5.90625 5.90625-9.160157 13.761719-9.160157 22.117188 0 8.355468 3.253907 16.210937 9.160157 22.121093 9.523437 9.523438 23.933593 11.578125 35.5625 6.101563l12.78125 12.777344c-6 12.140624-9.320313 25.460937-9.320313 39.429687 0 12.046875 2.445313 23.847656 7.265625 35.070313 2.261719 5.273437 1.941406 11.257812-.863281 16.011718-5.582031 9.476563-6.714844 20.871094-3.105469 31.261719 2.785156 8.007813 7.125 15.261719 12.65625 21.433594l-20.105469 20.101562c-11.628906-5.480469-26.039062-3.417969-35.558593 6.101563-5.910157 5.90625-9.164063 13.761718-9.164063 22.117187s3.253906 16.210938 9.164063 22.117188c4.128906 4.132812 9.253906 6.96875 14.792968 8.296875 1.332032 5.539062 4.164063 10.664062 8.296875 14.796875 5.90625 5.90625 13.761719 9.160156 22.117188 9.160156s16.210937-3.253906 22.121093-9.160156c9.519532-9.523438 11.582032-23.933594 6.097657-35.5625l9.492187-9.488281c5.25 16.832031 20.980469 29.085937 39.519532 29.085937h74.832031c18.539062 0 34.269531-12.253906 39.519531-29.085937l10.179688 10.179687c-5.484376 11.625-3.425782 26.035156 6.097656 35.558594zm12.453125-279.71875c3.847656-3.847657 3.910156-10.066407.144531-13.996094-4.214844-4.390625-4.140625-11.46875.164062-15.773437 2.132813-2.132813 4.964844-3.304688 7.976563-3.304688s5.847656 1.171875 7.976563 3.304688c2.367187 2.367187 3.554687 5.640624 3.257812 8.984374-.265625 2.949219.792969 5.863282 2.886719 7.957032s5.007812 3.15625 7.960937 2.890625c3.347656-.292969 6.617188.890625 8.984375 3.257812 4.398438 4.398438 4.398438 11.554688 0 15.953125-4.304687 4.304688-11.378906 4.378906-15.773437.164063-3.925782-3.769531-10.144532-3.703125-13.996094.144531l-15.40625 15.40625c-2.78125-3.527344-5.808594-6.898438-9.070312-10.09375zm-220.921875 9.582031c-3.847656-3.847656-10.066406-3.914062-13.992188-.144531-4.394531 4.214843-11.472656 4.140625-15.777344-.164063-2.128906-2.132812-3.304687-4.964844-3.304687-7.976562 0-3.015625 1.175781-5.847656 3.304687-7.976563 2.367188-2.367187 5.644532-3.550781 8.988282-3.257812 2.953125.257812 5.863281-.796875 7.957031-2.890625s3.152344-5.007813 2.890625-7.957032c-.296875-3.34375.890625-6.617187 3.253906-8.984374 2.132813-2.132813 4.964844-3.304688 7.976563-3.304688 3.015625 0 5.847656 1.171875 7.976562 3.304688 4.308594 4.304687 4.378907 11.382812.167969 15.773437-3.769531 3.929687-3.703125 10.148437.144531 13.996094l14.894531 14.894531c-3.261718 3.195312-6.292968 6.566406-9.074218 10.09375zm8.894531 225.535156c-3.847656 3.847656-3.914063 10.066406-.148437 13.992188 4.214843 4.394531 4.140624 11.472656-.164063 15.777344-2.128906 2.128906-4.960937 3.304687-7.976563 3.304687-3.011718 0-5.84375-1.175781-7.976562-3.304687-2.367188-2.367188-3.550781-5.644532-3.253906-8.988282.261718-2.949218-.796875-5.863281-2.890625-7.957031s-5.007813-3.152344-7.957031-2.890625c-3.355469.300781-6.621094-.890625-8.988282-3.257812-2.128906-2.128907-3.304687-4.960938-3.304687-7.972657 0-3.015625 1.175781-5.847656 3.304687-7.980469 4.304688-4.304687 11.382813-4.378906 15.777344-.160156 3.925781 3.765625 10.144531 3.699219 13.992188-.148437l27.386718-27.386719c2.503906 1.4375 5.109375 2.726562 7.824219 3.820312l1.925781.777344v4.816406zm165.160156-13.441406c0 9.304688-5.980469 17.214844-14.289062 20.152344v-3.382813c0-5.519531-4.476563-10-10-10-5.523438 0-10 4.480469-10 10v4.621094h-14.449219v-4.621094c0-5.519531-4.476562-10-10-10s-10 4.480469-10 10v4.621094h-14.449219v-4.621094c0-5.519531-4.476562-10-10-10-5.523437 0-10 4.480469-10 10v3.429688c-8.375-2.898438-14.417969-10.847657-14.417969-20.199219v-25.6875c0-4.078125-2.480468-7.75-6.265624-9.273438l-8.191407-3.300781c-11.589843-4.664062-20.589843-14.109375-24.691406-25.914062-1.679687-4.832031-1.152344-10.132813 1.445313-14.542969 6.023437-10.222656 6.773437-22.953125 2.007812-34.054688-3.746094-8.714843-5.644531-17.859374-5.644531-27.179687 0-45.28125 44.925781-82.121094 100.144531-82.121094s100.140625 36.839844 100.140625 82.121094c0 9.320313-1.898437 18.464844-5.640625 27.179687-4.769531 11.101563-4.019531 23.832032 2.003906 34.054688 2.597656 4.410156 3.125 9.710938 1.445313 14.546875-4.101563 11.800781-13.097657 21.246094-24.6875 25.910156l-8.195313 3.300781c-3.785156 1.523438-6.265625 5.195313-6.265625 9.277344zm20-14.113281v-4.816407l1.929688-.777343c2.714843-1.09375 5.316406-2.382813 7.824219-3.820313l28.074218 28.078125c3.851563 3.847657 10.066406 3.914063 13.996094.144531 4.390625-4.214843 11.46875-4.140624 15.773438.164063 2.132812 2.132813 3.304687 4.964844 3.304687 7.976563 0 3.015624-1.171875 5.847656-3.304687 7.976562-2.367188 2.367188-5.644532 3.550781-8.988282 3.257812-2.953125-.269531-5.863281.792969-7.957031 2.890626-2.09375 2.09375-3.148437 5.007812-2.886719 7.953124.296875 3.347657-.890625 6.621094-3.257812 8.988282-2.128906 2.132812-4.960938 3.304687-7.976563 3.304687-3.011719 0-5.84375-1.171875-7.976562-3.304687-4.304688-4.304688-4.378907-11.382813-.164063-15.773438 3.769532-3.929687 3.703125-10.148437-.144531-13.996094zm0 0" fill="#ff0000" data-original="#000000" style="" class=""/><path xmlns="http://www.w3.org/2000/svg" d="m242.410156 272.789062c0-18.078124-14.710937-32.789062-32.792968-32.789062h-4.933594c-18.082032 0-32.792969 14.710938-32.792969 32.792969 0 18.078125 14.710937 32.789062 32.792969 32.789062h4.933594c18.082031 0 32.792968-14.710937 32.792968-32.792969zm-32.792968 12.792969h-4.933594c-7.054688 0-12.792969-5.738281-12.792969-12.792969 0-7.050781 5.738281-12.789062 12.792969-12.789062h4.933594c7.054687 0 12.792968 5.738281 12.792968 12.792969 0 7.050781-5.738281 12.789062-12.792968 12.789062zm0 0" fill="#ff0000" data-original="#000000" style="" class=""/><path xmlns="http://www.w3.org/2000/svg" d="m339.417969 272.789062c0-18.078124-14.710938-32.789062-32.792969-32.789062h-4.933594c-18.082031 0-32.792968 14.710938-32.792968 32.792969 0 18.078125 14.710937 32.789062 32.792968 32.789062h4.933594c18.082031 0 32.792969-14.710937 32.792969-32.792969zm-32.792969 12.792969h-4.933594c-7.054687 0-12.792968-5.738281-12.792968-12.792969 0-7.050781 5.738281-12.789062 12.792968-12.789062h4.933594c7.054688 0 12.792969 5.738281 12.792969 12.792969 0 7.050781-5.738281 12.789062-12.792969 12.789062zm0 0" fill="#ff0000" data-original="#000000" style="" class=""/><path xmlns="http://www.w3.org/2000/svg" d="m262.707031 295.738281c-1.882812-1.949219-4.476562-3.050781-7.1875-3.050781-.007812 0-.015625 0-.023437 0-2.71875.007812-5.320313 1.121094-7.199219 3.082031-.269531.28125-6.613281 6.933594-12.035156 14.992188-9.324219 13.855469-10.960938 24.855469-4.863281 32.699219 2.75 3.539062 6.550781 5.6875 10.996093 6.222656 4.675781.5625 9.183594-.824219 12.742188-2.53125 2.742187 1.480468 6.164062 2.6875 10.050781 2.683594h.222656c3.792969-.046876 9.355469-1.285157 14.320313-6.929688 6.558593-7.453125 4.933593-18.335938-4.835938-32.339844-5.511719-7.898437-11.914062-14.550781-12.1875-14.828125zm-6.929687 29.292969c-2.089844 0-4.207032.671875-6.035156 2.019531 1.398437-2.621093 3.449218-5.769531 5.855468-8.976562 2.511719 3.25 4.667969 6.433593 6.121094 9.035156-1.734375-1.382813-3.824219-2.078125-5.941406-2.078125zm0 0" fill="#ff0000" data-original="#000000" style="" class=""/></g></svg>
