<?xml version="1.0"?>
<svg xmlns="http://www.w3.org/2000/svg" xmlns:xlink="http://www.w3.org/1999/xlink" xmlns:svgjs="http://svgjs.com/svgjs" version="1.1" width="512" height="512" x="0" y="0" viewBox="0 0 511.90708 511" style="enable-background:new 0 0 512 512" xml:space="preserve"><g><path xmlns="http://www.w3.org/2000/svg" d="m135.9375 411.957031c-4.109375 0-7.605469-3.152343-7.960938-7.320312l-15.894531-185.808594-21.167969-38.511719c-2.136718-3.863281-.71875-8.734375 3.160157-10.855468 3.855469-2.128907 8.734375-.71875 10.855469 3.160156l21.992187 40c.535156.976562.863281 2.058594.960937 3.167968l16.039063 187.496094c.375 4.402344-2.878906 8.273438-7.289063 8.648438-.230468.015625-.46875.023437-.695312.023437zm0 0" fill="#ff0000" data-original="#000000" style=""/><path xmlns="http://www.w3.org/2000/svg" d="m82.386719 136.574219c-2.199219 0-4.382813-.914063-5.945313-2.648438l-50.480468-56.113281c-1.582032-1.765625-2.3125-4.144531-1.976563-6.496094.347656-2.351562 1.714844-4.429687 3.730469-5.671875l104-64c3.773437-2.320312 8.6875-1.152343 11.007812 2.617188 2.3125 3.769531 1.144532 8.695312-2.617187 11.007812l-95.832031 58.976563 39.648437 44.078125 87.863281-52.71875c3.800782-2.28125 8.714844-1.039063 10.976563 2.746093 2.273437 3.789063 1.046875 8.703126-2.742188 10.972657l-93.519531 56.113281c-1.28125.761719-2.707031 1.136719-4.113281 1.136719zm0 0" fill="#ff0000" data-original="#000000" style=""/><path xmlns="http://www.w3.org/2000/svg" d="m79.90625 176.773438c-1.078125 0-2.160156-.214844-3.183594-.664063l-71.914062-31.199219c-2.261719-.984375-3.949219-2.960937-4.558594-5.359375-.617188-2.402343-.078125-4.945312 1.449219-6.898437l38.304687-49.109375c2.703125-3.488281 7.734375-4.113281 11.222656-1.386719 3.488282 2.714844 4.105469 7.746094 1.382813 11.226562l-31.941406 40.960938 57.039062 24.75 65.488281-75.855469c2.871094-3.359375 7.941407-3.71875 11.277344-.832031 3.34375 2.878906 3.722656 7.9375.832032 11.28125l-69.328126 80.308594c-1.566406 1.808594-3.796874 2.777344-6.070312 2.777344zm0 0" fill="#ff0000" data-original="#000000" style=""/><path xmlns="http://www.w3.org/2000/svg" d="m87.914062 216.460938c-.574218 0-1.167968-.0625-1.742187-.183594l-72-16c-4.152344-.917969-6.851563-4.925782-6.160156-9.128906l7.964843-48c.722657-4.359376 4.851563-7.328126 9.203126-6.574219 4.359374.71875 7.300781 4.839843 6.574218 9.199219l-6.726562 40.519531 57.421875 12.761719 21.816406-69.746094c1.3125-4.214844 5.777344-6.574219 10.023437-5.238282 4.210938 1.3125 6.5625 5.808594 5.242188 10.023438l-24 76.761719c-1.058594 3.390625-4.183594 5.605469-7.617188 5.605469zm0 0" fill="#ff0000" data-original="#000000" style=""/><path xmlns="http://www.w3.org/2000/svg" d="m375.953125 411.957031c-.222656 0-.464844-.007812-.6875-.03125-4.40625-.375-7.664063-4.246093-7.289063-8.648437l16.042969-187.496094c.09375-1.121094.421875-2.191406.957031-3.167969l21.992188-40c2.128906-3.871093 7.007812-5.28125 10.859375-3.160156 3.871094 2.128906 5.285156 6.992187 3.15625 10.855469l-21.167969 38.511718-15.894531 185.808594c-.359375 4.175782-3.855469 7.328125-7.96875 7.328125zm0 0" fill="#ff0000" data-original="#000000" style=""/><path xmlns="http://www.w3.org/2000/svg" d="m429.507812 136.574219c-1.417968 0-2.832031-.375-4.121093-1.144531l-93.519531-56.113282c-3.792969-2.269531-5.015626-7.183594-2.746094-10.972656 2.273437-3.785156 7.175781-5.027344 10.976562-2.746094l87.863282 52.71875 39.648437-44.078125-95.824219-58.960937c-3.757812-2.3125-4.925781-7.238282-2.613281-11.007813 2.300781-3.769531 7.214844-4.9375 11.007813-2.617187l104 64c2.015624 1.242187 3.382812 3.320312 3.726562 5.671875.335938 2.355469-.390625 4.730469-1.976562 6.496093l-50.480469 56.113282c-1.558594 1.71875-3.734375 2.640625-5.941407 2.640625zm0 0" fill="#ff0000" data-original="#000000" style=""/><path xmlns="http://www.w3.org/2000/svg" d="m431.984375 176.773438c-2.269531 0-4.503906-.96875-6.054687-2.777344l-69.328126-80.308594c-2.886718-3.34375-2.511718-8.402344.832032-11.28125 3.335937-2.886719 8.402344-2.527344 11.28125.832031l65.488281 75.855469 57.039063-24.75-31.945313-40.960938c-2.71875-3.488281-2.101563-8.511718 1.386719-11.226562 3.480468-2.726562 8.511718-2.101562 11.222656 1.386719l38.304688 49.109375c1.519531 1.953125 2.0625 4.503906 1.445312 6.898437-.605469 2.398438-2.292969 4.375-4.558594 5.359375l-71.910156 31.199219c-1.050781.449219-2.128906.664063-3.203125.664063zm0 0" fill="#ff0000" data-original="#000000" style=""/><path xmlns="http://www.w3.org/2000/svg" d="m423.976562 216.460938c-3.429687 0-6.558593-2.207032-7.621093-5.605469l-24-76.761719c-1.320313-4.214844 1.03125-8.710938 5.238281-10.023438 4.242188-1.328124 8.703125 1.03125 10.023438 5.238282l21.816406 69.746094 57.425781-12.761719-6.730469-40.519531c-.726562-4.359376 2.21875-8.488282 6.578125-9.199219 4.429688-.800781 8.488281 2.222656 9.199219 6.574219l7.96875 48c.695312 4.195312-2.007812 8.203124-6.160156 9.128906l-72 16c-.578125.121094-1.160156.183594-1.738282.183594zm0 0" fill="#ff0000" data-original="#000000" style=""/><path xmlns="http://www.w3.org/2000/svg" d="m375.984375 16.460938h-240.078125c-4.425781 0-8-3.574219-8-8 0-4.421876 3.574219-8 8-8h240.078125c4.425781 0 8 3.578124 8 8 0 4.425781-3.574219 8-8 8zm0 0" fill="#ff0000" data-original="#000000" style=""/><path xmlns="http://www.w3.org/2000/svg" d="m119.914062 224.460938c-2.863281 0-5.640624-1.542969-7.078124-4.253907-2.074219-3.90625-.578126-8.746093 3.328124-10.816406l136-72c3.917969-2.074219 8.742188-.570313 10.8125 3.328125 2.074219 3.902344.578126 8.742188-3.328124 10.816406l-136 72c-1.199219.628906-2.476563.925782-3.734376.925782zm0 0" fill="#ff0000" data-original="#000000" style=""/><path xmlns="http://www.w3.org/2000/svg" d="m391.9375 224.460938c-1.253906 0-2.535156-.296876-3.734375-.925782l-136-72c-3.90625-2.074218-5.402344-6.90625-3.328125-10.816406 2.070312-3.898438 6.886719-5.402344 10.816406-3.328125l136 72c3.902344 2.070313 5.398438 6.902344 3.328125 10.816406-1.441406 2.710938-4.21875 4.253907-7.082031 4.253907zm0 0" fill="#ff0000" data-original="#000000" style=""/><path xmlns="http://www.w3.org/2000/svg" d="m255.945312 224.460938c-.917968 0-1.863281-.160157-2.78125-.503907l-80-29.671875c-4.144531-1.535156-6.257812-6.144531-4.722656-10.28125 1.527344-4.140625 6.144532-6.261718 10.28125-4.71875l80 29.671875c4.144532 1.535157 6.253906 6.144531 4.71875 10.28125-1.191406 3.230469-4.246094 5.222657-7.496094 5.222657zm0 0" fill="#ff0000" data-original="#000000" style=""/><path xmlns="http://www.w3.org/2000/svg" d="m255.945312 224.460938c-3.246093 0-6.304687-1.992188-7.503906-5.214844-1.535156-4.144532.578125-8.746094 4.722656-10.28125l80-29.671875c4.140626-1.542969 8.742188.578125 10.277344 4.722656 1.535156 4.140625-.574218 8.742187-4.71875 10.277344l-80 29.671875c-.914062.335937-1.855468.496094-2.777344.496094zm0 0" fill="#ff0000" data-original="#000000" style=""/><path xmlns="http://www.w3.org/2000/svg" d="m255.945312 304.460938c-.917968 0-1.863281-.160157-2.78125-.503907l-80-29.671875c-4.144531-1.535156-6.257812-6.144531-4.722656-10.28125 1.527344-4.140625 6.144532-6.269531 10.28125-4.71875l80 29.671875c4.144532 1.535157 6.253906 6.144531 4.71875 10.28125-1.191406 3.230469-4.246094 5.222657-7.496094 5.222657zm0 0" fill="#ff0000" data-original="#000000" style=""/><path xmlns="http://www.w3.org/2000/svg" d="m255.945312 304.460938c-3.246093 0-6.304687-1.992188-7.503906-5.214844-1.535156-4.144532.578125-8.746094 4.722656-10.28125l80-29.671875c4.140626-1.558594 8.742188.578125 10.277344 4.722656 1.535156 4.140625-.574218 8.742187-4.71875 10.277344l-80 29.671875c-.914062.335937-1.855468.496094-2.777344.496094zm0 0" fill="#ff0000" data-original="#000000" style=""/><path xmlns="http://www.w3.org/2000/svg" d="m255.945312 384.460938c-.917968 0-1.863281-.160157-2.78125-.503907l-80-29.671875c-4.144531-1.535156-6.257812-6.144531-4.722656-10.28125 1.527344-4.140625 6.144532-6.261718 10.28125-4.71875l80 29.671875c4.144532 1.535157 6.253906 6.144531 4.71875 10.28125-1.191406 3.230469-4.246094 5.222657-7.496094 5.222657zm0 0" fill="#ff0000" data-original="#000000" style=""/><path xmlns="http://www.w3.org/2000/svg" d="m255.945312 384.460938c-3.246093 0-6.304687-1.992188-7.503906-5.214844-1.535156-4.144532.578125-8.746094 4.722656-10.28125l80-29.671875c4.140626-1.542969 8.742188.578125 10.277344 4.722656 1.535156 4.140625-.574218 8.742187-4.71875 10.277344l-80 29.671875c-.914062.335937-1.855468.496094-2.777344.496094zm0 0" fill="#ff0000" data-original="#000000" style=""/><path xmlns="http://www.w3.org/2000/svg" d="m255.945312 456.460938c-.917968 0-1.863281-.160157-2.78125-.503907l-120-44.503906c-4.144531-1.535156-6.257812-6.144531-4.722656-10.28125 1.527344-4.140625 6.160156-6.277344 10.28125-4.71875l120 44.503906c4.144532 1.535157 6.253906 6.144531 4.71875 10.28125-1.191406 3.230469-4.246094 5.222657-7.496094 5.222657zm0 0" fill="#ff0000" data-original="#000000" style=""/><path xmlns="http://www.w3.org/2000/svg" d="m255.945312 456.460938c-3.246093 0-6.304687-1.992188-7.503906-5.214844-1.535156-4.144532.578125-8.746094 4.722656-10.28125l120-44.503906c4.140626-1.558594 8.75.578124 10.277344 4.722656 1.535156 4.140625-.574218 8.742187-4.71875 10.277344l-120 44.503906c-.914062.335937-1.855468.496094-2.777344.496094zm0 0" fill="#ff0000" data-original="#000000" style=""/><path xmlns="http://www.w3.org/2000/svg" d="m175.914062 80.460938c-2.664062 0-5.273437-1.328126-6.792968-3.757813l-40-64c-2.34375-3.753906-1.199219-8.6875 2.535156-11.023437 3.761719-2.355469 8.683594-1.210938 11.027344 2.535156l40 64c2.34375 3.75 1.199218 8.6875-2.539063 11.023437-1.316406.832031-2.78125 1.222657-4.230469 1.222657zm0 0" fill="#ff0000" data-original="#000000" style=""/><path xmlns="http://www.w3.org/2000/svg" d="m335.976562 80.460938c-1.445312 0-2.910156-.390626-4.230468-1.214844-3.742188-2.335938-4.878906-7.273438-2.535156-11.023438l40-64c2.335937-3.753906 7.269531-4.890625 11.023437-2.535156 3.742187 2.335938 4.878906 7.269531 2.535156 11.023438l-40 64c-1.519531 2.421874-4.128906 3.75-6.792969 3.75zm0 0" fill="#ff0000" data-original="#000000" style=""/><path xmlns="http://www.w3.org/2000/svg" d="m255.9375 80.460938c-1.75 0-3.511719-.566407-4.992188-1.75l-80-64c-3.445312-2.769532-4.007812-7.800782-1.246093-11.25 2.773437-3.429688 7.800781-4.007813 11.246093-1.246094l80 64c3.449219 2.765625 4.007813 7.800781 1.25 11.246094-1.585937 1.96875-3.90625 3-6.257812 3zm0 0" fill="#ff0000" data-original="#000000" style=""/><path xmlns="http://www.w3.org/2000/svg" d="m255.953125 80.460938c-2.351563 0-4.671875-1.023438-6.253906-3-2.761719-3.457032-2.191407-8.488282 1.246093-11.246094l80-64c3.464844-2.769532 8.496094-2.199219 11.25 1.246094 2.75 3.449218 2.191407 8.488281-1.25 11.25l-80 64c-1.480468 1.183593-3.238281 1.75-4.992187 1.75zm0 0" fill="#ff0000" data-original="#000000" style=""/><path xmlns="http://www.w3.org/2000/svg" d="m255.945312 104.460938c-4.421874 0-8-3.574219-8-8v-24c0-4.421876 3.578126-8 8-8 4.425782 0 8 3.578124 8 8v24c0 4.425781-3.574218 8-8 8zm0 0" fill="#ff0000" data-original="#000000" style=""/><path xmlns="http://www.w3.org/2000/svg" d="m175.945312 426.773438c-4.421874 0-8-3.574219-8-8v-231.984376c0-4.421874 3.578126-8 8-8 4.425782 0 8 3.578126 8 8v231.984376c0 4.425781-3.574218 8-8 8zm0 0" fill="#ff0000" data-original="#000000" style=""/><path xmlns="http://www.w3.org/2000/svg" d="m335.945312 426.773438c-4.421874 0-8-3.574219-8-8v-231.984376c0-4.421874 3.578126-8 8-8 4.425782 0 8 3.578126 8 8v231.984376c0 4.425781-3.574218 8-8 8zm0 0" fill="#ff0000" data-original="#000000" style=""/></g></svg>
