<?xml version="1.0"?>
<svg xmlns="http://www.w3.org/2000/svg" xmlns:xlink="http://www.w3.org/1999/xlink" xmlns:svgjs="http://svgjs.com/svgjs" version="1.1" width="512" height="512" x="0" y="0" viewBox="0 0 128 128" style="enable-background:new 0 0 512 512" xml:space="preserve" class=""><g><path xmlns="http://www.w3.org/2000/svg" d="m119.708 74.854-.006-.017-17.83-40.629a15.519 15.519 0 0 0 -4.892-6.18l-3.2-7.281a10.286 10.286 0 0 0 -19.7 4.132v7.957a15.46 15.46 0 0 0 -2 7.613v3.87h-16.16v-3.869a15.457 15.457 0 0 0 -2-7.613v-7.957a10.286 10.286 0 0 0 -19.7-4.133l-3.2 7.281a15.519 15.519 0 0 0 -4.892 6.179l-17.828 40.63-.006.017a25.578 25.578 0 1 0 47.624 13c0-.013 0-.025 0-.039v-28h16.162v28 .039a25.583 25.583 0 1 0 47.624-13zm-44.128-33.87v-.53a12.04 12.04 0 0 1 18.969-9.854h.006a12.029 12.029 0 0 1 4.112 5.015l1.829 4.17.007.013 11.907 27.134a25.537 25.537 0 0 0 -36.831 8zm8.79-22.884a6.776 6.776 0 0 1 6.207 4.054l1.491 3.394a15.522 15.522 0 0 0 -14.488 3.045v-3.713a6.793 6.793 0 0 1 6.79-6.78zm-56.876 21.7.009-.015 1.83-4.171a12.05 12.05 0 0 1 23.087 4.84v34.479a25.537 25.537 0 0 0 -36.831-8zm9.929-17.65a6.786 6.786 0 0 1 13 2.727v3.713a15.522 15.522 0 0 0 -14.488-3.046zm-7.09 87.75a22.083 22.083 0 1 1 22.084-22.08 22.108 22.108 0 0 1 -22.084 22.08zm25.587-53.58v-8.5h16.16v8.5zm41.747 53.58a22.083 22.083 0 1 1 22.083-22.08 22.109 22.109 0 0 1 -22.083 22.08z" fill="#ff0000" data-original="#000000" style="" class=""/><path xmlns="http://www.w3.org/2000/svg" d="m97.667 68.237a19.583 19.583 0 1 0 19.583 19.583 19.605 19.605 0 0 0 -19.583-19.583zm0 35.667a16.083 16.083 0 1 1 16.083-16.084 16.1 16.1 0 0 1 -16.083 16.08z" fill="#ff0000" data-original="#000000" style="" class=""/><path xmlns="http://www.w3.org/2000/svg" d="m30.333 68.237a19.583 19.583 0 1 0 19.584 19.583 19.605 19.605 0 0 0 -19.584-19.583zm0 35.667a16.083 16.083 0 1 1 16.084-16.084 16.1 16.1 0 0 1 -16.084 16.08z" fill="#ff0000" data-original="#000000" style="" class=""/></g></svg>
