<?xml version="1.0"?>
<svg xmlns="http://www.w3.org/2000/svg" xmlns:xlink="http://www.w3.org/1999/xlink" xmlns:svgjs="http://svgjs.com/svgjs" version="1.1" width="512" height="512" x="0" y="0" viewBox="0 0 512 512" style="enable-background:new 0 0 512 512" xml:space="preserve" class=""><g>
<g xmlns="http://www.w3.org/2000/svg">
	<g>
		<path d="M497,0H135c-6.044,0-11.498,3.628-13.834,9.203c-2.337,5.575-1.099,12.007,3.14,16.316l43.741,44.47    C157.097,78.204,150,91.289,150,106v24.865l-32.782,8.194C119.021,133.357,120,127.291,120,121c0-33.084-26.916-60-60-60    S0,87.916,0,121c0,24.139,14.336,44.98,34.935,54.493C31.768,181.684,30,188.668,30,196v120c0,0.01,0.001,0.019,0.001,0.028    c0,8.822,2.632,17.542,7.558,24.933L90,419.624V467c0,24.813,20.187,45,45,45s45-20.187,45-45v-61    c0-8.913-2.613-17.544-7.559-24.961L159.082,361h11.836l46.644,69.966c13.815,20.706,41.794,26.232,62.396,12.478    c20.646-13.756,26.246-41.75,12.483-62.405l-60-90C224.076,278.491,210.08,271,195,271h-75v-39.865l85.922-21.477    C225.986,204.636,240,186.683,240,166v-59.189l32.06,10.687l29.251,141.538c0.401,1.934,1.207,3.788,2.209,5.285l58.886,88.329    l29.364,88.094c1.051,3.152,3.118,5.866,5.878,7.716l91,61c4.576,3.067,10.499,3.396,15.414,0.774    C508.948,507.627,512,502.539,512,497V15C512,6.716,505.284,0,497,0z M30,121c0-16.542,13.458-30,30-30s30,13.458,30,30    s-13.458,30-30,30S30,137.542,30,121z M150,467c0,8.271-6.729,15-15,15s-15-6.729-15-15v-51.918c0-2.961-0.877-5.856-2.52-8.32    L86.973,361h36.054l24.453,36.68c1.648,2.473,2.52,5.35,2.52,8.32V467z M210,166c0,6.896-4.672,12.881-11.357,14.554    l-97.28,24.316C94.685,206.54,90,212.54,90,219.423V286c0,8.284,6.716,15,15,15h90c5.026,0,9.691,2.497,12.48,6.68l59.998,89.997    c4.588,6.886,2.724,16.218-4.167,20.809c-6.88,4.592-16.2,2.715-20.792-4.166l-51.094-76.641c-2.781-4.173-7.465-6.68-12.48-6.68    H75c-8.308,0-15-6.78-15-15V196c0-6.896,4.672-12.881,11.357-14.554l97.281-24.317C175.315,155.46,180,149.46,180,142.577V106    c0-8.271,6.729-15,15-15s15,6.729,15,15V166z M482,468.887l-63.391-42.493L396.812,361H436c8.284,0,15-6.716,15-15    s-6.716-15-15-15h-51.973l-44.653-66.98l71.369-23.79C416.868,238.188,421,232.457,421,226v-60c0-8.284-6.716-15-15-15    s-15,6.716-15,15v49.188l-63.728,21.243L302.04,114.336l50.58-24.876c7.434-3.656,10.496-12.646,6.84-20.08    c-3.655-7.435-12.647-10.495-20.08-6.841l-55.477,27.284l-64.171-21.391c-5.307-3.506-11.392-5.924-17.941-6.919L170.794,30H482    V468.887z" fill="#ff0000" data-original="#000000" style="" class=""/>
	</g>
</g>
<g xmlns="http://www.w3.org/2000/svg">
</g>
<g xmlns="http://www.w3.org/2000/svg">
</g>
<g xmlns="http://www.w3.org/2000/svg">
</g>
<g xmlns="http://www.w3.org/2000/svg">
</g>
<g xmlns="http://www.w3.org/2000/svg">
</g>
<g xmlns="http://www.w3.org/2000/svg">
</g>
<g xmlns="http://www.w3.org/2000/svg">
</g>
<g xmlns="http://www.w3.org/2000/svg">
</g>
<g xmlns="http://www.w3.org/2000/svg">
</g>
<g xmlns="http://www.w3.org/2000/svg">
</g>
<g xmlns="http://www.w3.org/2000/svg">
</g>
<g xmlns="http://www.w3.org/2000/svg">
</g>
<g xmlns="http://www.w3.org/2000/svg">
</g>
<g xmlns="http://www.w3.org/2000/svg">
</g>
<g xmlns="http://www.w3.org/2000/svg">
</g>
</g></svg>
