<svg xmlns="http://www.w3.org/2000/svg" width="512" height="512" viewBox="0 0 511.999 511.999"><g xmlns="http://www.w3.org/2000/svg" fill="red"><path d="M453.24 124.385a8.055 8.055 0 008.055-8.055V34.975C461.295 15.69 445.606 0 426.321 0H85.678C66.393 0 50.704 15.69 50.704 34.975v442.049c0 19.286 15.689 34.975 34.974 34.975H426.32c19.285 0 34.974-15.69 34.974-34.975v-334.92a8.055 8.055 0 00-8.055-8.055 8.055 8.055 0 00-8.055 8.055v334.921c0 10.403-8.463 18.866-18.865 18.866H85.678c-10.403 0-18.865-8.464-18.865-18.866V34.975c0-10.402 8.463-18.866 18.865-18.866H426.32c10.403 0 18.865 8.464 18.865 18.866v81.356a8.056 8.056 0 008.055 8.054z" data-original="#000000"/><path d="M222.399 440.537c-11.547 0-20.941 9.394-20.941 20.941 0 11.547 9.394 20.942 20.941 20.942h64.434c11.547 0 20.941-9.395 20.941-20.942s-9.394-20.941-20.941-20.941h-64.434zm69.266 20.941a4.839 4.839 0 01-4.832 4.833h-64.434a4.839 4.839 0 01-4.832-4.833 4.838 4.838 0 014.832-4.832h64.434a4.837 4.837 0 014.832 4.832zm-31.972-414c4.449 0 8.055-3.606 8.055-8.055s-3.605-8.055-8.055-8.055h-48.902c-4.449 0-8.055 3.606-8.055 8.055s3.605 8.055 8.055 8.055h48.902zm29.817-2.363a8.063 8.063 0 002.363-5.692 8.083 8.083 0 00-2.363-5.692c-1.493-1.504-3.576-2.363-5.692-2.363s-4.199.859-5.692 2.363a8.087 8.087 0 00-2.363 5.692 8.065 8.065 0 008.055 8.055c2.116 0 4.2-.86 5.692-2.363zm23.627 0c1.503-1.493 2.363-3.576 2.363-5.692s-.859-4.199-2.363-5.692a8.083 8.083 0 00-5.692-2.363 8.065 8.065 0 00-8.055 8.055 8.065 8.065 0 008.055 8.055c2.116 0 4.199-.86 5.692-2.363zm109.337 373.467V72.715a8.055 8.055 0 00-8.055-8.055H97.579a8.055 8.055 0 00-8.055 8.055v345.866a8.055 8.055 0 008.055 8.055h316.84a8.054 8.054 0 008.055-8.054zM105.634 80.769h32.08v24.858h-32.08V80.769zm300.731 329.758H105.634v-288.79h300.731v288.79zm0-304.899H153.823V80.769h252.542v24.859z" data-original="#000000"/><path d="M129.332 154.65v44.783a8.055 8.055 0 008.055 8.055h236.739a8.055 8.055 0 008.055-8.055V154.65a8.055 8.055 0 00-8.055-8.055H137.387a8.054 8.054 0 00-8.055 8.055zm16.109 8.055h220.63v28.674h-220.63v-28.674zm228.685 67.75H137.387a8.055 8.055 0 00-8.055 8.055 8.055 8.055 0 008.055 8.055h236.739a8.056 8.056 0 000-16.11zm0 33.913H137.387c-4.449 0-8.055 3.606-8.055 8.055s3.605 8.055 8.055 8.055h236.739c4.449 0 8.055-3.606 8.055-8.055s-3.606-8.055-8.055-8.055zm0 33.913H137.387c-4.449 0-8.055 3.606-8.055 8.055s3.605 8.055 8.055 8.055h236.739c4.449 0 8.055-3.606 8.055-8.055s-3.606-8.055-8.055-8.055zm0 33.912H137.387a8.055 8.055 0 00-8.055 8.055 8.055 8.055 0 008.055 8.055h236.739a8.056 8.056 0 000-16.11zm0 33.913H137.387a8.055 8.055 0 00-8.055 8.055 8.055 8.055 0 008.055 8.055h236.739a8.055 8.055 0 000-16.11z" data-original="#000000"/></g></svg>