<?xml version="1.0"?>
<svg xmlns="http://www.w3.org/2000/svg" xmlns:xlink="http://www.w3.org/1999/xlink" xmlns:svgjs="http://svgjs.com/svgjs" version="1.1" width="512" height="512" x="0" y="0" viewBox="0 0 511.999 511.999" style="enable-background:new 0 0 512 512" xml:space="preserve" class=""><g>
<g xmlns="http://www.w3.org/2000/svg">
	<g>
		<g>
			<path d="M453.24,124.385c4.449,0,8.055-3.606,8.055-8.055V34.975C461.295,15.69,445.606,0,426.321,0H85.678     C66.393,0,50.704,15.69,50.704,34.975v442.049c0,19.286,15.689,34.975,34.974,34.975H426.32c19.285,0,34.974-15.69,34.974-34.975     v-334.92c0-4.448-3.605-8.055-8.055-8.055c-4.449,0-8.055,3.606-8.055,8.055v334.921c0,10.403-8.463,18.866-18.865,18.866H85.678     c-10.403,0-18.865-8.464-18.865-18.866V34.975c0-10.402,8.463-18.866,18.865-18.866H426.32c10.403,0,18.865,8.464,18.865,18.866     v81.356C445.186,120.779,448.792,124.385,453.24,124.385z" fill="#ff0000" data-original="#000000" style="" class=""/>
			<path d="M222.399,440.537c-11.547,0-20.941,9.394-20.941,20.941c0,11.547,9.394,20.942,20.941,20.942h64.434     c11.547,0,20.941-9.395,20.941-20.942c0-11.547-9.394-20.941-20.941-20.941H222.399z M291.665,461.478     c0,2.664-2.168,4.833-4.832,4.833h-64.434c-2.663,0-4.832-2.168-4.832-4.833c0-2.664,2.168-4.832,4.832-4.832h64.434     C289.497,456.646,291.665,458.813,291.665,461.478z" fill="#ff0000" data-original="#000000" style="" class=""/>
			<path d="M259.693,47.478c4.449,0,8.055-3.606,8.055-8.055s-3.605-8.055-8.055-8.055h-48.902c-4.449,0-8.055,3.606-8.055,8.055     s3.605,8.055,8.055,8.055H259.693z" fill="#ff0000" data-original="#000000" style="" class=""/>
			<path d="M289.51,45.115c1.504-1.493,2.363-3.565,2.363-5.692c0-2.116-0.859-4.199-2.363-5.692     c-1.493-1.504-3.576-2.363-5.692-2.363s-4.199,0.859-5.692,2.363c-1.503,1.493-2.363,3.576-2.363,5.692     c0,2.126,0.859,4.199,2.363,5.692c1.493,1.504,3.576,2.363,5.692,2.363S288.018,46.618,289.51,45.115z" fill="#ff0000" data-original="#000000" style="" class=""/>
			<path d="M313.137,45.115c1.503-1.493,2.363-3.576,2.363-5.692s-0.859-4.199-2.363-5.692c-1.493-1.504-3.576-2.363-5.692-2.363     c-2.126,0-4.199,0.859-5.692,2.363c-1.503,1.493-2.363,3.576-2.363,5.692c0,2.126,0.859,4.199,2.363,5.692     c1.493,1.504,3.564,2.363,5.692,2.363C309.561,47.478,311.644,46.618,313.137,45.115z" fill="#ff0000" data-original="#000000" style="" class=""/>
			<path d="M422.474,418.582V113.682V72.715c0-4.448-3.605-8.055-8.055-8.055H145.769h-48.19c-4.449,0-8.055,3.606-8.055,8.055     v40.967v304.899c0,4.448,3.605,8.055,8.055,8.055h316.84C418.868,426.636,422.474,423.03,422.474,418.582z M105.634,80.769h32.08     v24.858h-32.08V80.769z M406.365,410.527H105.634v-288.79h40.135h260.596V410.527z M406.365,105.628H153.823V80.769h252.542     V105.628z" fill="#ff0000" data-original="#000000" style="" class=""/>
			<path d="M129.332,154.65v44.783c0,4.448,3.605,8.055,8.055,8.055h236.739c4.449,0,8.055-3.606,8.055-8.055V154.65     c0-4.448-3.605-8.055-8.055-8.055H137.387C132.937,146.595,129.332,150.201,129.332,154.65z M145.441,162.705h220.63v28.674     h-220.63V162.705z" fill="#ff0000" data-original="#000000" style="" class=""/>
			<path d="M374.126,230.455H137.387c-4.449,0-8.055,3.606-8.055,8.055c0,4.448,3.605,8.055,8.055,8.055h236.739     c4.449,0,8.055-3.606,8.055-8.055C382.18,234.062,378.575,230.455,374.126,230.455z" fill="#ff0000" data-original="#000000" style="" class=""/>
			<path d="M374.126,264.368H137.387c-4.449,0-8.055,3.606-8.055,8.055s3.605,8.055,8.055,8.055h236.739     c4.449,0,8.055-3.606,8.055-8.055S378.575,264.368,374.126,264.368z" fill="#ff0000" data-original="#000000" style="" class=""/>
			<path d="M374.126,298.281H137.387c-4.449,0-8.055,3.606-8.055,8.055s3.605,8.055,8.055,8.055h236.739     c4.449,0,8.055-3.606,8.055-8.055S378.575,298.281,374.126,298.281z" fill="#ff0000" data-original="#000000" style="" class=""/>
			<path d="M374.126,332.193H137.387c-4.449,0-8.055,3.606-8.055,8.055c0,4.448,3.605,8.055,8.055,8.055h236.739     c4.449,0,8.055-3.606,8.055-8.055C382.18,335.8,378.575,332.193,374.126,332.193z" fill="#ff0000" data-original="#000000" style="" class=""/>
			<path d="M374.126,366.106H137.387c-4.449,0-8.055,3.606-8.055,8.055c0,4.448,3.605,8.055,8.055,8.055h236.739     c4.449,0,8.055-3.606,8.055-8.055C382.18,369.712,378.575,366.106,374.126,366.106z" fill="#ff0000" data-original="#000000" style="" class=""/>
		</g>
	</g>
</g>
<g xmlns="http://www.w3.org/2000/svg">
</g>
<g xmlns="http://www.w3.org/2000/svg">
</g>
<g xmlns="http://www.w3.org/2000/svg">
</g>
<g xmlns="http://www.w3.org/2000/svg">
</g>
<g xmlns="http://www.w3.org/2000/svg">
</g>
<g xmlns="http://www.w3.org/2000/svg">
</g>
<g xmlns="http://www.w3.org/2000/svg">
</g>
<g xmlns="http://www.w3.org/2000/svg">
</g>
<g xmlns="http://www.w3.org/2000/svg">
</g>
<g xmlns="http://www.w3.org/2000/svg">
</g>
<g xmlns="http://www.w3.org/2000/svg">
</g>
<g xmlns="http://www.w3.org/2000/svg">
</g>
<g xmlns="http://www.w3.org/2000/svg">
</g>
<g xmlns="http://www.w3.org/2000/svg">
</g>
<g xmlns="http://www.w3.org/2000/svg">
</g>
</g></svg>
