<?xml version="1.0"?>
<svg xmlns="http://www.w3.org/2000/svg" xmlns:xlink="http://www.w3.org/1999/xlink" xmlns:svgjs="http://svgjs.com/svgjs" version="1.1" width="512" height="512" x="0" y="0" viewBox="0 0 443.517 443.517" style="enable-background:new 0 0 512 512" xml:space="preserve"><g><g xmlns="http://www.w3.org/2000/svg"><g><g><path d="m406.416 443.517c-18.224 0-33.076-14.833-33.076-33.076s14.833-33.076 33.076-33.076 33.076 14.833 33.076 33.076-14.833 33.076-33.076 33.076zm0-48.393c-8.46 0-15.336 6.876-15.336 15.336s6.876 15.336 15.336 15.336 15.336-6.876 15.336-15.336-6.876-15.336-15.336-15.336z" fill="#ff1800" data-original="#000000" style=""/></g><g><path d="m406.416 230.172c-18.224 0-33.076-14.833-33.076-33.076s14.833-33.076 33.076-33.076 33.076 14.833 33.076 33.076-14.833 33.076-33.076 33.076zm0-48.393c-8.46 0-15.336 6.876-15.336 15.336s6.876 15.336 15.336 15.336 15.336-6.876 15.336-15.336-6.876-15.336-15.336-15.336z" fill="#ff1800" data-original="#000000" style=""/></g><g><path d="m36.058 220.091c-18.243 0-33.076-14.833-33.076-33.076s14.833-33.076 33.076-33.076c18.224 0 33.076 14.833 33.076 33.076s-14.852 33.076-33.076 33.076zm0-48.394c-8.46 0-15.336 6.876-15.336 15.336s6.876 15.336 15.336 15.336 15.336-6.876 15.336-15.336-6.876-15.336-15.336-15.336z" fill="#ff1800" data-original="#000000" style=""/></g><g><path d="m176.859 350.904c-18.243 0-33.076-14.833-33.076-33.076 0-18.224 14.833-33.076 33.076-33.076 18.224 0 33.076 14.833 33.076 33.076-.019 18.243-14.852 33.076-33.076 33.076zm0-48.393c-8.46 0-15.336 6.876-15.336 15.336s6.876 15.336 15.336 15.336 15.336-6.876 15.336-15.336-6.895-15.336-15.336-15.336z" fill="#ff1800" data-original="#000000" style=""/></g><g><path d="m156.287 168.511c-18.243 0-33.076-14.833-33.076-33.076s14.833-33.076 33.076-33.076c18.224 0 33.076 14.833 33.076 33.076s-14.852 33.076-33.076 33.076zm0-48.412c-8.46 0-15.336 6.876-15.336 15.336s6.876 15.336 15.336 15.336 15.336-6.876 15.336-15.336-6.876-15.336-15.336-15.336z" fill="#ff1800" data-original="#000000" style=""/></g><g><path d="m221.246 66.152c-18.243 0-33.076-14.833-33.076-33.076s14.833-33.076 33.076-33.076c18.224 0 33.076 14.833 33.076 33.076-.018 18.224-14.851 33.076-33.076 33.076zm0-48.412c-8.46 0-15.336 6.876-15.336 15.336s6.876 15.336 15.336 15.336 15.336-6.876 15.336-15.336c-.018-8.46-6.894-15.336-15.336-15.336z" fill="#ff1800" data-original="#000000" style=""/></g><g><path d="m382.229 419.348h-237.216c-2.348 0-4.603-.932-6.28-2.59l-41.853-41.853h-85.029c-4.901 0-8.87-3.969-8.87-8.87s3.969-8.87 8.87-8.87h88.7c2.348 0 4.603.932 6.28 2.59l41.853 41.853h233.545c4.901 0 8.87 3.969 8.87 8.87s-3.988 8.87-8.87 8.87z" fill="#ff1800" data-original="#000000" style=""/></g><g><path d="m290.603 243.589h-133.478c-2.348 0-4.603-.932-6.28-2.59l-44.387-44.387h-46.213c-4.901 0-8.87-3.969-8.87-8.87s3.969-8.87 8.87-8.87h49.884c2.348 0 4.603.932 6.28 2.59l44.387 44.387h126.118l34.418-34.418c1.658-1.658 3.913-2.59 6.28-2.59h54.599c4.901 0 8.87 3.969 8.87 8.87s-3.969 8.87-8.87 8.87h-50.928l-34.418 34.418c-1.659 1.658-3.914 2.59-6.262 2.59z" fill="#ff1800" data-original="#000000" style=""/></g><g><path d="m431.647 326.698h-230.601c-4.901 0-8.87-3.969-8.87-8.87s3.969-8.87 8.87-8.87h230.582c4.901 0 8.87 3.969 8.87 8.87s-3.969 8.87-8.851 8.87z" fill="#ff1800" data-original="#000000" style=""/></g><g><path d="m258.515 144.305h-78.022c-4.901 0-8.87-3.969-8.87-8.87s3.969-8.87 8.87-8.87h74.351l49.605-49.605c1.658-1.658 3.913-2.59 6.28-2.59h120.937c4.901 0 8.87 3.969 8.87 8.87s-3.969 8.87-8.87 8.87h-117.248l-49.605 49.605c-1.695 1.658-3.95 2.59-6.298 2.59z" fill="#ff1800" data-original="#000000" style=""/></g><g><path d="m197.04 41.946h-185.189c-4.901 0-8.87-3.969-8.87-8.87s3.969-8.87 8.87-8.87h185.189c4.901 0 8.87 3.969 8.87 8.87s-3.969 8.87-8.87 8.87z" fill="#ff1800" data-original="#000000" style=""/></g></g></g></g></svg>
