<svg xmlns="http://www.w3.org/2000/svg" width="512" height="512" viewBox="0 0 443.517 443.517"><g xmlns="http://www.w3.org/2000/svg" fill="#ff1800"><path d="M406.416 443.517c-18.224 0-33.076-14.833-33.076-33.076s14.833-33.076 33.076-33.076 33.076 14.833 33.076 33.076-14.833 33.076-33.076 33.076zm0-48.393c-8.46 0-15.336 6.876-15.336 15.336s6.876 15.336 15.336 15.336 15.336-6.876 15.336-15.336-6.876-15.336-15.336-15.336zm0-164.952c-18.224 0-33.076-14.833-33.076-33.076s14.833-33.076 33.076-33.076 33.076 14.833 33.076 33.076-14.833 33.076-33.076 33.076zm0-48.393c-8.46 0-15.336 6.876-15.336 15.336s6.876 15.336 15.336 15.336 15.336-6.876 15.336-15.336-6.876-15.336-15.336-15.336zM36.058 220.091c-18.243 0-33.076-14.833-33.076-33.076s14.833-33.076 33.076-33.076c18.224 0 33.076 14.833 33.076 33.076s-14.852 33.076-33.076 33.076zm0-48.394c-8.46 0-15.336 6.876-15.336 15.336s6.876 15.336 15.336 15.336 15.336-6.876 15.336-15.336-6.876-15.336-15.336-15.336zm140.801 179.207c-18.243 0-33.076-14.833-33.076-33.076 0-18.224 14.833-33.076 33.076-33.076 18.224 0 33.076 14.833 33.076 33.076-.019 18.243-14.852 33.076-33.076 33.076zm0-48.393c-8.46 0-15.336 6.876-15.336 15.336s6.876 15.336 15.336 15.336 15.336-6.876 15.336-15.336-6.895-15.336-15.336-15.336zm-20.572-134c-18.243 0-33.076-14.833-33.076-33.076s14.833-33.076 33.076-33.076c18.224 0 33.076 14.833 33.076 33.076s-14.852 33.076-33.076 33.076zm0-48.412c-8.46 0-15.336 6.876-15.336 15.336s6.876 15.336 15.336 15.336 15.336-6.876 15.336-15.336-6.876-15.336-15.336-15.336zm64.959-53.947c-18.243 0-33.076-14.833-33.076-33.076S203.003 0 221.246 0c18.224 0 33.076 14.833 33.076 33.076-.018 18.224-14.851 33.076-33.076 33.076zm0-48.412c-8.46 0-15.336 6.876-15.336 15.336s6.876 15.336 15.336 15.336 15.336-6.876 15.336-15.336c-.018-8.46-6.894-15.336-15.336-15.336z" data-original="#000000"/><path d="M382.229 419.348H145.013a8.935 8.935 0 01-6.28-2.59L96.88 374.905H11.851c-4.901 0-8.87-3.969-8.87-8.87s3.969-8.87 8.87-8.87h88.7c2.348 0 4.603.932 6.28 2.59l41.853 41.853h233.545c4.901 0 8.87 3.969 8.87 8.87s-3.988 8.87-8.87 8.87zm-91.626-175.759H157.125a8.935 8.935 0 01-6.28-2.59l-44.387-44.387H60.245c-4.901 0-8.87-3.969-8.87-8.87s3.969-8.87 8.87-8.87h49.884c2.348 0 4.603.932 6.28 2.59l44.387 44.387h126.118l34.418-34.418a8.87 8.87 0 016.28-2.59h54.599c4.901 0 8.87 3.969 8.87 8.87s-3.969 8.87-8.87 8.87h-50.928l-34.418 34.418a8.862 8.862 0 01-6.262 2.59zm141.044 83.109H201.046c-4.901 0-8.87-3.969-8.87-8.87s3.969-8.87 8.87-8.87h230.582c4.901 0 8.87 3.969 8.87 8.87s-3.969 8.87-8.851 8.87zM258.515 144.305h-78.022c-4.901 0-8.87-3.969-8.87-8.87s3.969-8.87 8.87-8.87h74.351l49.605-49.605a8.87 8.87 0 016.28-2.59h120.937c4.901 0 8.87 3.969 8.87 8.87s-3.969 8.87-8.87 8.87H314.418l-49.605 49.605a9.01 9.01 0 01-6.298 2.59zM197.04 41.946H11.851c-4.901 0-8.87-3.969-8.87-8.87s3.969-8.87 8.87-8.87H197.04c4.901 0 8.87 3.969 8.87 8.87s-3.969 8.87-8.87 8.87z" data-original="#000000"/></g></svg>