<svg xmlns="http://www.w3.org/2000/svg" width="512" height="512" viewBox="0 0 511.982 511.982"><g xmlns="http://www.w3.org/2000/svg" fill="red"><path d="M255.991 169.039c-30.327 0-55 24.673-55 55 0 25.127 16.943 46.356 40 52.904v171.096c0 8.284 6.716 15 15 15s15-6.716 15-15V276.943c23.057-6.547 40-27.777 40-52.904 0-30.327-24.673-55-55-55zm-69.394-25.194c-5.857-5.858-15.354-5.858-21.213 0-46.505 46.503-46.512 121.781 0 168.291 5.859 5.858 15.355 5.858 21.213 0 5.858-5.857 5.858-15.355 0-21.213-34.78-34.779-34.786-91.08 0-125.865 5.858-5.858 5.858-15.356 0-21.213zm160 0c-5.857-5.857-15.355-5.857-21.213 0s-5.858 15.355 0 21.213c34.701 34.701 34.701 91.164 0 125.865-5.858 5.857-5.858 15.355 0 21.213 5.859 5.858 15.355 5.858 21.213 0 46.399-46.397 46.399-121.894 0-168.291z" data-original="#000000"/><path d="M141.342 119.803c5.858-5.857 5.858-15.355 0-21.213-5.857-5.857-15.355-5.857-21.213 0-71.352 71.352-71.352 187.449 0 258.801 5.856 5.857 15.354 5.86 21.213 0 5.858-5.857 5.858-15.355 0-21.213-59.654-59.655-59.654-156.72 0-216.375zm250.51-21.213c-5.857-5.857-15.355-5.857-21.213 0s-5.858 15.355 0 21.213c59.654 59.655 59.654 156.72 0 216.375-5.858 5.857-5.858 15.355 0 21.213 5.859 5.858 15.355 5.858 21.213 0 71.352-71.352 71.352-187.449 0-258.801z" data-original="#000000"/><path d="M96.087 74.548c5.858-5.857 5.858-15.355 0-21.213-5.857-5.857-15.355-5.857-21.213 0-99.941 99.94-99.724 249.587 0 349.311 5.856 5.857 15.354 5.86 21.213 0 5.858-5.857 5.858-15.355 0-21.213-87.475-87.477-87.475-219.408 0-306.885zm341.02-21.213c-5.857-5.857-15.355-5.857-21.213 0s-5.858 15.355 0 21.213c87.477 87.477 87.477 219.408 0 306.885-5.858 5.857-5.858 15.355 0 21.213 5.859 5.858 15.355 5.858 21.213 0 99.94-99.939 99.725-249.587 0-349.311z" data-original="#000000"/></g></svg>