<svg xmlns="http://www.w3.org/2000/svg" width="512" height="512" viewBox="0 0 480 480"><path d="M339.904 161.776l-5.136-16.904c-6.524-19.202-27.379-29.479-46.581-22.955a36.72 36.72 0 00-22.955 22.955l-5.136 16.904a94.952 94.952 0 00-2.648 44 41.385 41.385 0 0021.312 28.84L273.008 363.2a25.335 25.335 0 006.4 19.696c10.413 11.39 28.089 12.182 39.479 1.769a27.848 27.848 0 001.769-1.769 24.993 24.993 0 006.4-19.16L321.272 234.6a41.376 41.376 0 0021.28-28.824 94.952 94.952 0 00-2.648-44zm-13.112 41.216a25.366 25.366 0 01-16.6 19.112 7.999 7.999 0 00-5.176 7.848L311.096 365a9.255 9.255 0 01-2.4 7.248c-4.817 4.769-12.575 4.769-17.392 0a9.602 9.602 0 01-2.352-7.776l6.032-134.52a7.999 7.999 0 00-5.176-7.848 25.366 25.366 0 01-16.6-19.112 78.89 78.89 0 012.2-36.528l5.136-16.912c3.974-10.745 15.906-16.234 26.652-12.26a20.744 20.744 0 0112.26 12.26l5.136 16.912a78.999 78.999 0 012.2 36.528zM216 120a8 8 0 00-8 8v68.688l-21.656 21.656A8 8 0 00184 224.4l7 140a10.898 10.898 0 01-3.024 8.152c-4.379 4.418-11.511 4.45-15.93.07l-.07-.07a10.894 10.894 0 01-3.024-8.152l7.048-140a8.002 8.002 0 00-2.336-6.056L152 196.688V128a8 8 0 00-16 0v72a8 8 0 002.344 5.656l21.488 21.496-6.824 136.472c-.726 14.907 10.77 27.581 25.677 28.307 14.907.726 27.581-10.77 28.307-25.677.043-.876.043-1.753 0-2.629l-6.824-136.472 21.488-21.496a8 8 0 002.344-5.656v-72a8 8 0 00-8-8.001z" fill="red" data-original="#000000" xmlns="http://www.w3.org/2000/svg"/><path d="M168 120a8 8 0 00-8 8v64a8 8 0 0016 0v-64a8 8 0 00-8-8zm24 0a8 8 0 00-8 8v64a8 8 0 0016 0v-64a8 8 0 00-8-8z" fill="red" data-original="#000000" xmlns="http://www.w3.org/2000/svg"/><path d="M240 0C107.452 0 0 107.452 0 240s107.452 240 240 240 240-107.452 240-240C479.85 107.514 372.486.15 240 0zm0 464C116.288 464 16 363.712 16 240S116.288 16 240 16s224 100.288 224 224c-.141 123.653-100.347 223.859-224 224z" fill="red" data-original="#000000" xmlns="http://www.w3.org/2000/svg"/><path d="M265.969 390.172a8 8 0 00-9.049-7.149l.032-.008a146.959 146.959 0 01-33.904 0 8.002 8.002 0 00-8.88 7.016 8.002 8.002 0 007.016 8.88 162.046 162.046 0 0037.6 0 8 8 0 007.185-8.739zm96.431-253.26a7.999 7.999 0 00-11.27-.988l-.034.028a8 8 0 00-.96 11.272c48.235 57.26 44.545 141.929-8.488 194.776a8.002 8.002 0 0011.296 11.336c58.937-58.713 63.047-152.795 9.456-216.424zm-176.008-31.168l-.015-.001-.025.001h.04zm91.344-21.272a161.416 161.416 0 00-94.168 5.784 8 8 0 002.809 15.487 8.011 8.011 0 002.799-.519 145.334 145.334 0 0184.8-5.2 8 8 0 009.656-5.896 8 8 0 00-5.896-9.656zM137.992 341.6A143.073 143.073 0 0196 240a142.937 142.937 0 0127.528-84.704 8 8 0 00-1.588-11.202 8 8 0 00-11.34 1.778c-46.253 63.588-39.447 151.359 16.056 207.056a8.013 8.013 0 0011.336-11.328z" fill="red" data-original="#000000" xmlns="http://www.w3.org/2000/svg"/></svg>