<?xml version="1.0"?>
<svg xmlns="http://www.w3.org/2000/svg" xmlns:xlink="http://www.w3.org/1999/xlink" xmlns:svgjs="http://svgjs.com/svgjs" version="1.1" width="512" height="512" x="0" y="0" viewBox="0 0 64 64" style="enable-background:new 0 0 512 512" xml:space="preserve"><g><g xmlns="http://www.w3.org/2000/svg" id="outline"><path d="m19 38h2v2h-2z" fill="#ff0000" data-original="#000000" style=""/><path d="m43 38h2v2h-2z" fill="#ff0000" data-original="#000000" style=""/><path d="m29 47h2v2h-2z" fill="#ff0000" data-original="#000000" style=""/><path d="m33 47h2v2h-2z" fill="#ff0000" data-original="#000000" style=""/><path d="m27 43h2v2h-2z" fill="#ff0000" data-original="#000000" style=""/><path d="m31 43h2v2h-2z" fill="#ff0000" data-original="#000000" style=""/><path d="m35 43h2v2h-2z" fill="#ff0000" data-original="#000000" style=""/><path d="m33 39h2v2h-2z" fill="#ff0000" data-original="#000000" style=""/><path d="m29 39h2v2h-2z" fill="#ff0000" data-original="#000000" style=""/><path d="m61 14h-3.095a4.865 4.865 0 0 0 -4.905-4h-42a4.865 4.865 0 0 0 -4.9 4h-3.1a1 1 0 0 0 -1 1v10a1 1 0 0 0 1 1h3.222a13.233 13.233 0 0 0 9.958 9.81 4.974 4.974 0 0 0 3.82 8.19h2a10 10 0 0 0 20 0h2a4.995 4.995 0 0 0 5-5 4.955 4.955 0 0 0 -1.155-3.157c5.232-.814 9.565-4.975 10.1-9.843h3.055a1 1 0 0 0 1-1v-10a1 1 0 0 0 -1-1zm-33 2h9v2h-9zm-16-2v-2h40v2zm-8 10v-8h2v8zm16 18a3 3 0 1 1 0-6h6.026a10.005 10.005 0 0 0 -3.826 6zm6.454-8c1.746-1.446 2.9-3.69 3.526-6.8.133-.663.542-2.252.791-3.2h2.429c.227.98.615 2.614.85 3.316 1.015 3.046 1.943 5.254 3.472 6.684zm5.546 18a8 8 0 1 1 8-8 8.009 8.009 0 0 1 -8 8zm14.128-10.882a3.018 3.018 0 0 1 -2.128.882h-2.2a10.005 10.005 0 0 0 -3.824-6h6.024a3 3 0 0 1 2.128 5.118zm-.128-7.118h-2c-4.914 0-6.132-1.559-8.052-7.316-.254-.762-.788-3.075-.972-3.9a1 1 0 0 0 -.976-.784h-4a1 1 0 0 0 -.966.742c-.033.123-.808 3.031-1.014 4.062-1.009 5.044-3.408 7.196-8.02 7.196h-2c-4.953 0-10-5.047-10-10v-9a2.835 2.835 0 0 1 2-2.84v2.84a1 1 0 0 0 1 1h15v3a1 1 0 0 0 1 1h11a1 1 0 0 0 1-1v-3h14a1 1 0 0 0 1-1v-2.84a2.835 2.835 0 0 1 2 2.84v10c0 4.71-4.767 9-10 9zm14-10h-2v-8h2z" fill="#ff0000" data-original="#000000" style=""/></g></g></svg>
