<svg xmlns="http://www.w3.org/2000/svg" width="512" height="512" viewBox="0 0 64 64"><g xmlns="http://www.w3.org/2000/svg" id="outline" fill="red"><path d="M19 38h2v2h-2zm24 0h2v2h-2zm-14 9h2v2h-2zm4 0h2v2h-2zm-6-4h2v2h-2zm4 0h2v2h-2zm4 0h2v2h-2zm-2-4h2v2h-2zm-4 0h2v2h-2z" data-original="#000000"/><path d="M61 14h-3.095A4.865 4.865 0 0053 10H11a4.865 4.865 0 00-4.9 4H3a1 1 0 00-1 1v10a1 1 0 001 1h3.222a13.233 13.233 0 009.958 9.81A4.974 4.974 0 0020 44h2a10 10 0 0020 0h2a4.995 4.995 0 005-5 4.955 4.955 0 00-1.155-3.157c5.232-.814 9.565-4.975 10.1-9.843H61a1 1 0 001-1V15a1 1 0 00-1-1zm-33 2h9v2h-9zm-16-2v-2h40v2zM4 24v-8h2v8zm16 18a3 3 0 110-6h6.026a10.005 10.005 0 00-3.826 6zm6.454-8c1.746-1.446 2.9-3.69 3.526-6.8.133-.663.542-2.252.791-3.2H33.2c.227.98.615 2.614.85 3.316 1.015 3.046 1.943 5.254 3.472 6.684zM32 52a8 8 0 118-8 8.009 8.009 0 01-8 8zm14.128-10.882A3.018 3.018 0 0144 42h-2.2a10.005 10.005 0 00-3.824-6H44a3 3 0 012.128 5.118zM46 34h-2c-4.914 0-6.132-1.559-8.052-7.316-.254-.762-.788-3.075-.972-3.9A1 1 0 0034 22h-4a1 1 0 00-.966.742c-.033.123-.808 3.031-1.014 4.062C27.011 31.848 24.612 34 20 34h-2c-4.953 0-10-5.047-10-10v-9a2.835 2.835 0 012-2.84V15a1 1 0 001 1h15v3a1 1 0 001 1h11a1 1 0 001-1v-3h14a1 1 0 001-1v-2.84A2.835 2.835 0 0156 15v10c0 4.71-4.767 9-10 9zm14-10h-2v-8h2z" data-original="#000000"/></g></svg>