<svg xmlns="http://www.w3.org/2000/svg" width="512" height="512" viewBox="0 0 511.907 511"><g fill="red"><path xmlns="http://www.w3.org/2000/svg" d="M135.938 411.957a8.003 8.003 0 01-7.961-7.32l-15.895-185.809-21.168-38.512c-2.137-3.863-.719-8.734 3.16-10.855 3.856-2.129 8.735-.719 10.856 3.16l21.992 40a8.07 8.07 0 01.96 3.168l16.04 187.496a7.99 7.99 0 01-7.29 8.649c-.23.015-.468.023-.695.023zM82.387 136.574c-2.2 0-4.383-.914-5.946-2.648l-50.48-56.113a8.04 8.04 0 01-1.977-6.497 8.044 8.044 0 013.73-5.671l104-64a7.99 7.99 0 0111.009 2.617c2.312 3.77 1.144 8.695-2.618 11.008L44.273 74.246l39.649 44.078 87.863-52.719c3.8-2.28 8.715-1.039 10.977 2.747 2.273 3.789 1.047 8.703-2.742 10.972L86.5 135.438a8.052 8.052 0 01-4.113 1.136zm0 0" data-original="#000000"/><path xmlns="http://www.w3.org/2000/svg" d="M79.906 176.773a7.902 7.902 0 01-3.183-.664L4.809 144.91a7.995 7.995 0 01-4.559-5.36 7.97 7.97 0 011.45-6.898l38.304-49.109c2.703-3.488 7.734-4.113 11.223-1.387a7.989 7.989 0 011.382 11.227l-31.941 40.96 57.039 24.75 65.488-75.855c2.871-3.36 7.942-3.718 11.278-.832 3.343 2.88 3.722 7.938.832 11.281l-69.328 80.31a8.024 8.024 0 01-6.07 2.776zm0 0" data-original="#000000"/><path xmlns="http://www.w3.org/2000/svg" d="M87.914 216.46a8.517 8.517 0 01-1.742-.183l-72-16c-4.152-.918-6.852-4.925-6.16-9.129l7.965-48c.722-4.359 4.851-7.328 9.203-6.574 4.36.719 7.3 4.84 6.574 9.2l-6.727 40.519 57.422 12.762 21.817-69.746a7.968 7.968 0 0110.023-5.239c4.211 1.313 6.563 5.809 5.242 10.024l-24 76.761a7.98 7.98 0 01-7.617 5.606zm288.039 195.497a7.993 7.993 0 01-7.977-8.68l16.044-187.496a7.949 7.949 0 01.957-3.168l21.992-40c2.129-3.87 7.008-5.281 10.86-3.16 3.87 2.129 5.284 6.992 3.155 10.856l-21.168 38.511-15.894 185.809a8.01 8.01 0 01-7.969 7.328zm53.555-275.383a8.002 8.002 0 01-4.121-1.144l-93.52-56.114c-3.793-2.27-5.015-7.183-2.746-10.972a7.995 7.995 0 0110.977-2.746l87.863 52.718 39.648-44.078-95.824-58.96c-3.758-2.313-4.926-7.239-2.613-11.008 2.3-3.77 7.215-4.938 11.008-2.618l104 64a8.028 8.028 0 013.726 5.672 8.022 8.022 0 01-1.976 6.496l-50.48 56.114a8.026 8.026 0 01-5.942 2.64zm0 0" data-original="#000000"/><path xmlns="http://www.w3.org/2000/svg" d="M431.984 176.773a7.974 7.974 0 01-6.054-2.777l-69.328-80.309c-2.887-3.343-2.512-8.402.832-11.28 3.336-2.887 8.402-2.528 11.28.831l65.49 75.856 57.038-24.75-31.945-40.961c-2.719-3.488-2.102-8.512 1.387-11.227a7.98 7.98 0 0111.222 1.387l38.305 49.11a7.999 7.999 0 011.445 6.898 7.976 7.976 0 01-4.558 5.36l-71.91 31.198a8.104 8.104 0 01-3.204.664zm0 0" data-original="#000000"/><path xmlns="http://www.w3.org/2000/svg" d="M423.977 216.46a7.982 7.982 0 01-7.622-5.605l-24-76.761c-1.32-4.215 1.032-8.711 5.239-10.024a7.986 7.986 0 0110.023 5.239l21.817 69.746 57.425-12.762-6.73-40.52c-.727-4.359 2.219-8.488 6.578-9.199 4.43-.8 8.488 2.223 9.2 6.574l7.968 48a8.01 8.01 0 01-6.16 9.13l-72 16a8.48 8.48 0 01-1.738.183zm-47.993-200H135.906a7.99 7.99 0 01-8-8c0-4.42 3.574-8 8-8h240.078c4.426 0 8 3.58 8 8 0 4.427-3.574 8-8 8zm-256.07 208a8.005 8.005 0 01-7.078-4.253c-2.074-3.906-.578-8.746 3.328-10.816l136-72c3.918-2.075 8.742-.57 10.813 3.328 2.074 3.902.578 8.742-3.329 10.816l-136 72a8.015 8.015 0 01-3.734.926zm0 0" data-original="#000000"/><path xmlns="http://www.w3.org/2000/svg" d="M391.938 224.46a8.027 8.027 0 01-3.735-.925l-136-72c-3.906-2.074-5.402-6.906-3.328-10.816a7.997 7.997 0 0110.816-3.328l136 72a8.002 8.002 0 013.329 10.816 8.016 8.016 0 01-7.082 4.254zm-135.993 0a7.94 7.94 0 01-2.78-.503l-80-29.672c-4.145-1.535-6.259-6.144-4.724-10.281 1.528-4.14 6.145-6.262 10.282-4.719l80 29.672a7.999 7.999 0 014.718 10.281 7.986 7.986 0 01-7.496 5.223zm0 0" data-original="#000000"/><path xmlns="http://www.w3.org/2000/svg" d="M255.945 224.46a8.011 8.011 0 01-7.504-5.214 7.999 7.999 0 014.723-10.281l80-29.672c4.14-1.543 8.742.578 10.277 4.723a7.994 7.994 0 01-4.718 10.277l-80 29.672a8.05 8.05 0 01-2.778.496zm0 80a7.94 7.94 0 01-2.78-.503l-80-29.672c-4.145-1.535-6.259-6.144-4.724-10.281 1.528-4.14 6.145-6.27 10.282-4.719l80 29.672a7.999 7.999 0 014.718 10.281 7.986 7.986 0 01-7.496 5.223zm0 0" data-original="#000000"/><path xmlns="http://www.w3.org/2000/svg" d="M255.945 304.46a8.011 8.011 0 01-7.504-5.214 7.999 7.999 0 014.723-10.281l80-29.672c4.14-1.559 8.742.578 10.277 4.723a7.994 7.994 0 01-4.718 10.277l-80 29.672a8.05 8.05 0 01-2.778.496zm0 80a7.94 7.94 0 01-2.78-.503l-80-29.672c-4.145-1.535-6.259-6.144-4.724-10.281 1.528-4.14 6.145-6.262 10.282-4.719l80 29.672a7.999 7.999 0 014.718 10.281 7.986 7.986 0 01-7.496 5.223zm0 0" data-original="#000000"/><path xmlns="http://www.w3.org/2000/svg" d="M255.945 384.46a8.011 8.011 0 01-7.504-5.214 7.999 7.999 0 014.723-10.281l80-29.672c4.14-1.543 8.742.578 10.277 4.723a7.994 7.994 0 01-4.718 10.277l-80 29.672a8.05 8.05 0 01-2.778.496zm0 72a7.94 7.94 0 01-2.78-.503l-120-44.504c-4.145-1.535-6.259-6.144-4.724-10.281 1.528-4.14 6.16-6.277 10.282-4.719l120 44.504a7.999 7.999 0 014.718 10.281 7.986 7.986 0 01-7.496 5.223zm0 0" data-original="#000000"/><path xmlns="http://www.w3.org/2000/svg" d="M255.945 456.46a8.011 8.011 0 01-7.504-5.214 7.999 7.999 0 014.723-10.281l120-44.504c4.14-1.559 8.75.578 10.277 4.723a7.994 7.994 0 01-4.718 10.277l-120 44.504a8.05 8.05 0 01-2.778.496zm-80.031-376a7.996 7.996 0 01-6.793-3.757l-40-64c-2.344-3.754-1.2-8.687 2.535-11.023a7.987 7.987 0 0111.028 2.535l40 64c2.343 3.75 1.199 8.687-2.54 11.023a7.885 7.885 0 01-4.23 1.223zm160.063 0a7.96 7.96 0 01-4.23-1.214c-3.743-2.336-4.88-7.273-2.536-11.023l40-64a7.975 7.975 0 0111.023-2.535c3.743 2.335 4.88 7.269 2.536 11.023l-40 64a8.006 8.006 0 01-6.793 3.75zm-80.039 0a7.957 7.957 0 01-4.993-1.75l-80-64c-3.445-2.769-4.007-7.8-1.246-11.25 2.774-3.429 7.801-4.007 11.246-1.245l80 64c3.45 2.765 4.008 7.8 1.25 11.246a8.015 8.015 0 01-6.257 3zm0 0" data-original="#000000"/><path xmlns="http://www.w3.org/2000/svg" d="M255.953 80.46a7.977 7.977 0 01-6.254-3c-2.762-3.456-2.191-8.487 1.246-11.245l80-64a8 8 0 0111.25 1.246c2.75 3.45 2.192 8.488-1.25 11.25l-80 64a7.95 7.95 0 01-4.992 1.75zm0 0" data-original="#000000"/><path xmlns="http://www.w3.org/2000/svg" d="M255.945 104.46c-4.422 0-8-3.573-8-8v-24c0-4.42 3.578-8 8-8 4.426 0 8 3.58 8 8v24c0 4.427-3.574 8-8 8zm-80 322.313c-4.422 0-8-3.574-8-8V186.79c0-4.422 3.578-8 8-8 4.426 0 8 3.578 8 8v231.984c0 4.426-3.574 8-8 8zm160 0c-4.422 0-8-3.574-8-8V186.79c0-4.422 3.578-8 8-8 4.426 0 8 3.578 8 8v231.984c0 4.426-3.574 8-8 8zm0 0" data-original="#000000"/></g></svg>