<svg xmlns="http://www.w3.org/2000/svg" width="512" height="512"><g xmlns="http://www.w3.org/2000/svg" fill="red"><path d="M237.137 245.221a8.084 8.084 0 008.084 8.084h21.558a8.082 8.082 0 008.084-8.084 8.082 8.082 0 00-8.084-8.084h-21.558a8.083 8.083 0 00-8.084 8.084zM256 91.621h32.337c4.466 0 8.084-3.619 8.084-8.084s-3.619-8.084-8.084-8.084H256c-4.465 0-8.084 3.619-8.084 8.084s3.619 8.084 8.084 8.084zm185.937 142.821a8.082 8.082 0 008.084 8.084h32.337a8.082 8.082 0 008.084-8.084 8.082 8.082 0 00-8.084-8.084h-32.337a8.082 8.082 0 00-8.084 8.084zM191.326 48.505h43.116a8.083 8.083 0 008.084-8.084 8.084 8.084 0 00-8.084-8.084h-43.116a8.083 8.083 0 00-8.084 8.084 8.084 8.084 0 008.084 8.084zM61.979 194.021H40.421a8.083 8.083 0 00-8.084 8.084 8.084 8.084 0 008.084 8.084h21.558a8.083 8.083 0 008.084-8.084 8.084 8.084 0 00-8.084-8.084zm43.116 0H94.316a8.083 8.083 0 00-8.084 8.084 8.084 8.084 0 008.084 8.084h10.779a8.084 8.084 0 000-16.168z" data-original="#000000"/><path d="M503.916 495.832H409.6V361.095h61.979c22.289 0 40.421-18.132 40.421-40.421 0-22.289-18.132-40.421-40.421-40.421H409.6v-67.584c23.262-11.715 39.907-34.716 42.701-61.763h8.499a8.082 8.082 0 008.084-8.084 8.082 8.082 0 00-8.084-8.084h-8.499c-3.784-36.647-33.001-65.863-69.648-69.648V8.084c0-4.466-3.619-8.084-8.084-8.084s-8.084 3.619-8.084 8.084v57.004c-36.647 3.784-65.863 33.001-69.648 69.648h-8.499a8.082 8.082 0 00-8.084 8.084 8.082 8.082 0 008.084 8.084h8.499c2.794 27.048 19.439 50.049 42.701 61.763v67.584h-61.979c-22.289 0-40.421 18.132-40.421 40.421 0 22.289 18.132 40.421 40.421 40.421h61.979V495.83h-43.116v-2.695c0-37.387-28.346-68.277-64.674-72.312v-57.036a8.084 8.084 0 00-8.084-8.084 8.083 8.083 0 00-8.084 8.084v57.036c-36.328 4.035-64.674 34.925-64.674 72.312v2.695h-16.168V242.526h37.726v164.379a8.084 8.084 0 008.084 8.084 8.083 8.083 0 008.084-8.084v-165.19c18.427-3.756 32.337-20.09 32.337-39.609s-13.91-35.853-32.337-39.609v-52.012c0-19.317-15.716-35.032-35.032-35.032-19.316 0-35.032 15.715-35.032 35.032v51.2H102.4V35.032C102.4 15.715 86.684 0 67.368 0 48.053 0 32.337 15.715 32.337 35.032a8.084 8.084 0 008.084 8.084 8.083 8.083 0 008.084-8.084c0-10.401 8.463-18.863 18.863-18.863 10.401 0 18.863 8.463 18.863 18.863v126.653H48.505V61.979a8.084 8.084 0 00-8.084-8.084 8.083 8.083 0 00-8.084 8.084v100.517C13.91 166.252 0 182.586 0 202.105s13.91 35.853 32.337 39.609v254.117H8.084a8.085 8.085 0 000 16.169h172.463a8.083 8.083 0 008.084-8.084 8.084 8.084 0 00-8.084-8.084h-13.474v-2.695c0-31.203 25.385-56.589 56.589-56.589s56.589 25.387 56.589 56.589v2.695h-67.368a8.084 8.084 0 00-8.084 8.084 8.084 8.084 0 008.084 8.084h291.032a8.082 8.082 0 008.084-8.084 8.08 8.08 0 00-8.083-8.084zM134.737 110.484c0-10.401 8.463-18.863 18.863-18.863 10.401 0 18.863 8.463 18.863 18.863v51.2h-37.726v-51.2zM16.168 202.105c0-13.372 10.879-24.253 24.253-24.253h140.126c13.373 0 24.253 10.88 24.253 24.253s-10.879 24.253-24.253 24.253H40.421c-13.373 0-24.253-10.88-24.253-24.253zm70.064 293.727H48.505V242.526h37.726v253.306zm32.336 0H102.4V242.526h16.168v253.306zm255.999-414.99c31.437 0 57.481 23.524 61.454 53.895H313.114c3.974-30.371 30.017-53.895 61.453-53.895zm-61.453 70.063h122.908c-3.973 30.371-30.017 53.895-61.454 53.895s-57.48-23.524-61.454-53.895zm-35.556 194.021c-10.54 0-19.53-6.758-22.868-16.168h87.541a8.082 8.082 0 008.084-8.084 8.082 8.082 0 00-8.084-8.084H254.69c3.337-9.41 12.328-16.168 22.868-16.168h70.063a8.083 8.083 0 008.084-8.084v-69.67c6.043 1.504 12.362 2.301 18.863 2.301s12.82-.798 18.863-2.301v61.586h-8.084a8.082 8.082 0 00-8.084 8.084 8.082 8.082 0 008.084 8.084h86.232c10.54 0 19.53 6.758 22.868 16.168h-87.541a8.082 8.082 0 00-8.084 8.084 8.082 8.082 0 008.084 8.084h87.541c-3.337 9.41-12.328 16.168-22.868 16.168H277.558zm115.874 150.906h-37.726V361.095h37.726v134.737z" data-original="#000000"/><path d="M229.053 468.884a8.083 8.083 0 008.084-8.084 8.084 8.084 0 00-8.084-8.084h-10.779a8.084 8.084 0 00-8.084 8.084 8.084 8.084 0 008.084 8.084h10.779z" data-original="#000000"/></g></svg>