<?xml version="1.0"?>
<svg xmlns="http://www.w3.org/2000/svg" xmlns:xlink="http://www.w3.org/1999/xlink" xmlns:svgjs="http://svgjs.com/svgjs" version="1.1" width="512" height="512" x="0" y="0" viewBox="0 0 512 512" style="enable-background:new 0 0 512 512" xml:space="preserve" class=""><g>
<g xmlns="http://www.w3.org/2000/svg">
	<g>
		<g>
			<path d="M237.137,245.221c0,4.466,3.62,8.084,8.084,8.084h21.558c4.466,0,8.084-3.618,8.084-8.084     c0-4.466-3.618-8.084-8.084-8.084h-21.558C240.756,237.137,237.137,240.755,237.137,245.221z" fill="#ff0000" data-original="#000000" style="" class=""/>
			<path d="M256,91.621h32.337c4.466,0,8.084-3.619,8.084-8.084s-3.619-8.084-8.084-8.084H256c-4.465,0-8.084,3.619-8.084,8.084     S251.535,91.621,256,91.621z" fill="#ff0000" data-original="#000000" style="" class=""/>
			<path d="M441.937,234.442c0,4.466,3.618,8.084,8.084,8.084h32.337c4.466,0,8.084-3.618,8.084-8.084     c0-4.466-3.618-8.084-8.084-8.084h-32.337C445.555,226.358,441.937,229.976,441.937,234.442z" fill="#ff0000" data-original="#000000" style="" class=""/>
			<path d="M191.326,48.505h43.116c4.465,0,8.084-3.618,8.084-8.084c0-4.466-3.62-8.084-8.084-8.084h-43.116     c-4.465,0-8.084,3.618-8.084,8.084C183.242,44.887,186.862,48.505,191.326,48.505z" fill="#ff0000" data-original="#000000" style="" class=""/>
			<path d="M61.979,194.021H40.421c-4.465,0-8.084,3.618-8.084,8.084c0,4.466,3.62,8.084,8.084,8.084h21.558     c4.465,0,8.084-3.618,8.084-8.084C70.063,197.64,66.444,194.021,61.979,194.021z" fill="#ff0000" data-original="#000000" style="" class=""/>
			<path d="M105.095,194.021H94.316c-4.465,0-8.084,3.618-8.084,8.084c0,4.466,3.62,8.084,8.084,8.084h10.779     c4.465,0,8.084-3.618,8.084-8.084C113.179,197.64,109.559,194.021,105.095,194.021z" fill="#ff0000" data-original="#000000" style="" class=""/>
			<path d="M503.916,495.832H409.6V361.095h61.979c22.289,0,40.421-18.132,40.421-40.421c0-22.289-18.132-40.421-40.421-40.421     H409.6v-67.584c23.262-11.715,39.907-34.716,42.701-61.763h8.499c4.466,0,8.084-3.618,8.084-8.084     c0-4.466-3.618-8.084-8.084-8.084h-8.499c-3.784-36.647-33.001-65.863-69.648-69.648V8.084c0-4.466-3.619-8.084-8.084-8.084     s-8.084,3.619-8.084,8.084v57.004c-36.647,3.784-65.863,33.001-69.648,69.648h-8.499c-4.466,0-8.084,3.618-8.084,8.084     c0,4.466,3.618,8.084,8.084,8.084h8.499c2.794,27.048,19.439,50.049,42.701,61.763v67.584h-61.979     c-22.289,0-40.421,18.132-40.421,40.421c0,22.289,18.132,40.421,40.421,40.421h61.979v134.737h-43.116v-2.695     c0-37.387-28.346-68.277-64.674-72.312v-57.036c0-4.466-3.62-8.084-8.084-8.084c-4.465,0-8.084,3.618-8.084,8.084v57.036     c-36.328,4.035-64.674,34.925-64.674,72.312v2.695h-16.168V242.526h37.726v164.379c0,4.466,3.62,8.084,8.084,8.084     c4.465,0,8.084-3.618,8.084-8.084V241.715c18.427-3.756,32.337-20.09,32.337-39.609s-13.91-35.853-32.337-39.609v-52.012     c0-19.317-15.716-35.032-35.032-35.032c-19.316,0-35.032,15.715-35.032,35.032v51.2H102.4V35.032C102.4,15.715,86.684,0,67.368,0     C48.053,0,32.337,15.715,32.337,35.032c0,4.466,3.62,8.084,8.084,8.084c4.465,0,8.084-3.618,8.084-8.084     c0-10.401,8.463-18.863,18.863-18.863c10.401,0,18.863,8.463,18.863,18.863v126.653H48.505V61.979     c0-4.466-3.62-8.084-8.084-8.084c-4.465,0-8.084,3.618-8.084,8.084v100.517C13.91,166.252,0,182.586,0,202.105     s13.91,35.853,32.337,39.609v254.117H8.084C3.62,495.832,0,499.45,0,503.916C0,508.382,3.62,512,8.084,512h172.463     c4.465,0,8.084-3.618,8.084-8.084c0-4.466-3.62-8.084-8.084-8.084h-13.474v-2.695c0-31.203,25.385-56.589,56.589-56.589     s56.589,25.387,56.589,56.589v2.695h-67.368c-4.465,0-8.084,3.619-8.084,8.084c0,4.466,3.62,8.084,8.084,8.084h291.032     c4.466,0,8.084-3.618,8.084-8.084C512,499.45,508.382,495.832,503.916,495.832z M134.737,110.484     c0-10.401,8.463-18.863,18.863-18.863c10.401,0,18.863,8.463,18.863,18.863v51.2h-37.726V110.484z M16.168,202.105     c0-13.372,10.879-24.253,24.253-24.253h140.126c13.373,0,24.253,10.88,24.253,24.253s-10.879,24.253-24.253,24.253H40.421     C27.048,226.358,16.168,215.478,16.168,202.105z M86.232,495.832H48.505V242.526h37.726V495.832z M118.568,495.832H102.4V242.526     h16.168V495.832z M374.567,80.842c31.437,0,57.481,23.524,61.454,53.895H313.114C317.088,104.366,343.131,80.842,374.567,80.842z      M313.114,150.905h122.908c-3.973,30.371-30.017,53.895-61.454,53.895S317.088,181.276,313.114,150.905z M277.558,344.926     c-10.54,0-19.53-6.758-22.868-16.168h87.541c4.466,0,8.084-3.618,8.084-8.084c0-4.466-3.618-8.084-8.084-8.084H254.69     c3.337-9.41,12.328-16.168,22.868-16.168h70.063c4.466,0,8.084-3.619,8.084-8.084v-69.67c6.043,1.504,12.362,2.301,18.863,2.301     s12.82-0.798,18.863-2.301v61.586h-8.084c-4.466,0-8.084,3.618-8.084,8.084c0,4.466,3.618,8.084,8.084,8.084h86.232     c10.54,0,19.53,6.758,22.868,16.168h-87.541c-4.466,0-8.084,3.618-8.084,8.084c0,4.466,3.618,8.084,8.084,8.084h87.541     c-3.337,9.41-12.328,16.168-22.868,16.168H277.558z M393.432,495.832h-37.726V361.095h37.726V495.832z" fill="#ff0000" data-original="#000000" style="" class=""/>
			<path d="M229.053,468.884c4.465,0,8.084-3.618,8.084-8.084c0-4.466-3.62-8.084-8.084-8.084h-10.779     c-4.465,0-8.084,3.619-8.084,8.084c0,4.466,3.62,8.084,8.084,8.084H229.053z" fill="#ff0000" data-original="#000000" style="" class=""/>
		</g>
	</g>
</g>
<g xmlns="http://www.w3.org/2000/svg">
</g>
<g xmlns="http://www.w3.org/2000/svg">
</g>
<g xmlns="http://www.w3.org/2000/svg">
</g>
<g xmlns="http://www.w3.org/2000/svg">
</g>
<g xmlns="http://www.w3.org/2000/svg">
</g>
<g xmlns="http://www.w3.org/2000/svg">
</g>
<g xmlns="http://www.w3.org/2000/svg">
</g>
<g xmlns="http://www.w3.org/2000/svg">
</g>
<g xmlns="http://www.w3.org/2000/svg">
</g>
<g xmlns="http://www.w3.org/2000/svg">
</g>
<g xmlns="http://www.w3.org/2000/svg">
</g>
<g xmlns="http://www.w3.org/2000/svg">
</g>
<g xmlns="http://www.w3.org/2000/svg">
</g>
<g xmlns="http://www.w3.org/2000/svg">
</g>
<g xmlns="http://www.w3.org/2000/svg">
</g>
</g></svg>
