<svg xmlns="http://www.w3.org/2000/svg" width="512" height="512"><g xmlns="http://www.w3.org/2000/svg" fill="red"><path d="M342.089 378.815H169.911c-4.142 0-7.5 3.357-7.5 7.5s3.358 7.5 7.5 7.5H342.09a7.5 7.5 0 10-.001-15zm0 37.416H169.911c-4.142 0-7.5 3.357-7.5 7.5s3.358 7.5 7.5 7.5H342.09a7.5 7.5 0 10-.001-15zM195.531 132.502a7.5 7.5 0 00-7.5 7.5v125.21c0 4.143 3.358 7.5 7.5 7.5s7.5-3.357 7.5-7.5v-125.21a7.5 7.5 0 00-7.5-7.5z" data-original="#000000"/><path d="M504.5 376.282a7.5 7.5 0 007.5-7.5V171.775c0-23.118-18.808-41.927-41.927-41.927h-1.662a18.375 18.375 0 00-4.341-6.396V59.444a22.798 22.798 0 00-7.864-17.231L412.98 4.725c-6.658-5.778-17.115-1.058-17.115 7.812v110.915a18.398 18.398 0 00-4.341 6.396h-47.081V82.582c3.923-9.483 12.268-17.415 8.591-30.547l-10.4-37.155c-2.092-7.472-8.972-12.689-16.73-12.689h-16.528c-7.759 0-14.639 5.218-16.73 12.69l-10.401 37.154a23.774 23.774 0 001.784 17.39l6.807 13.157v47.266h-57.767v-19.251c0-7.911 3.625-15.229 9.696-19.578 13.648-9.777 19.841-26.623 15.777-42.918l-8.324-33.372a16.487 16.487 0 00-16.021-12.518h-5.717c-11.644 0-21.117 9.474-21.117 21.118v23.96c0 15.054-23.647 14.968-23.647 1.215V23.599c0-11.696-9.383-21.29-20.917-21.387l-.202-.001a23.777 23.777 0 00-23.136 18.076L132.523 48.1c-4.104 16.452 2.548 33.922 16.552 43.471 6.286 4.286 10.039 11.655 10.039 19.713v18.563h-41.511v-21.729c0-4.852-.588-9.138-1.965-14.33L94.262 13.219c-1.75-6.597-7.511-11.028-14.335-11.028S67.342 6.623 65.592 13.219l-21.375 80.57c-1.377 5.192-1.965 9.479-1.965 14.33v21.729h-.326C18.808 129.848 0 148.657 0 171.775v296.11c0 23.118 18.808 41.927 41.927 41.927h428.146c23.119 0 41.927-18.809 41.927-41.927v-64.037c0-4.143-3.358-7.5-7.5-7.5s-7.5 3.357-7.5 7.5v64.037c0 14.848-12.079 26.927-26.927 26.927H41.927C27.079 494.812 15 482.733 15 467.885v-152.65h482v53.547a7.5 7.5 0 007.5 7.5zM79.929 17.689l8.812 33.217H71.115zM67.135 65.906H92.72c8.806 33.295 8.627 32.28 9.123 34.713H58.01c.501-2.453.344-1.517 9.125-34.713zm35.466 234.329H57.252v-84.648c0-4.143-3.358-7.5-7.5-7.5s-7.5 3.357-7.5 7.5v84.648H15v-128.46c0-14.848 12.079-26.927 26.927-26.927h.326v35.672c0 4.143 3.358 7.5 7.5 7.5s7.5-3.357 7.5-7.5v-64.901h45.348zm56.511 0h-41.511V144.848h41.511zM296.688 56.079l10.401-37.153a2.382 2.382 0 012.286-1.734h16.528c1.06 0 2 .713 2.286 1.733l10.401 37.154a8.825 8.825 0 01-.662 6.454l-5.549 10.725h-29.481l-5.549-10.725a8.83 8.83 0 01-.661-6.454zm32.756 32.178v123.16h-23.609V88.257zm-111.376 22.34v189.638h-43.957v-188.95c0-12.977-6.159-24.941-16.481-32.032-8.843-6.075-13.228-16.807-10.632-27.217l7.014-28.118a8.822 8.822 0 018.66-6.705c3.332.027 6.042 2.893 6.042 6.387v24.905c0 33.691 53.647 33.751 53.647-1.215V23.33a6.118 6.118 0 016.118-6.118 8.828 8.828 0 018.566 6.692l7.006 28.089c2.547 10.21-1.615 20.758-10.145 26.92-9.919 7.167-15.838 19-15.838 31.684zm59.077 189.638h-44.076V144.848h57.767v66.569h-2.848c-13.005 0-23.585 10.58-23.585 23.585 0 9.097 5.18 17.002 12.743 20.934v44.299zm65.989 0h-50.99v-41.647h50.99zm4.158-56.648h-59.305c-4.734 0-8.585-3.852-8.585-8.585s3.851-8.585 8.585-8.585h59.305c4.734 0 8.585 3.852 8.585 8.585s-3.851 8.585-8.585 8.585zm42.897 56.648h-32.055v-44.298c7.562-3.933 12.743-11.838 12.743-20.934 0-13.005-10.58-23.585-23.585-23.585h-2.848v-66.569h45.745zm20.677-277.489l35.512 30.798a7.81 7.81 0 012.693 5.9v17.738l-38.205-33.134zm0 41.158l38.205 33.134v21.306h-38.205zm43.882 236.331h-49.559V136.688c0-1.845 1.5-3.345 3.345-3.345h42.869c6.487 0 1.858 1.524 3.345 166.892zm15 0V144.848h.326c14.848 0 26.927 12.079 26.927 26.927v128.46z" data-original="#000000"/></g></svg>