<?xml version="1.0"?>
<svg xmlns="http://www.w3.org/2000/svg" xmlns:xlink="http://www.w3.org/1999/xlink" xmlns:svgjs="http://svgjs.com/svgjs" version="1.1" width="512" height="512" x="0" y="0" viewBox="0 0 512 512" style="enable-background:new 0 0 512 512" xml:space="preserve" class=""><g><g xmlns="http://www.w3.org/2000/svg"><g><path d="m342.089 378.815h-172.178c-4.142 0-7.5 3.357-7.5 7.5s3.358 7.5 7.5 7.5h172.179c4.142 0 7.5-3.357 7.5-7.5s-3.359-7.5-7.501-7.5z" fill="#ff0000" data-original="#000000" style="" class=""/><path d="m342.089 416.231h-172.178c-4.142 0-7.5 3.357-7.5 7.5s3.358 7.5 7.5 7.5h172.179c4.142 0 7.5-3.357 7.5-7.5s-3.359-7.5-7.501-7.5z" fill="#ff0000" data-original="#000000" style="" class=""/><path d="m195.531 132.502c-4.142 0-7.5 3.357-7.5 7.5v125.21c0 4.143 3.358 7.5 7.5 7.5s7.5-3.357 7.5-7.5v-125.21c0-4.143-3.358-7.5-7.5-7.5z" fill="#ff0000" data-original="#000000" style="" class=""/><path d="m504.5 376.282c4.142 0 7.5-3.357 7.5-7.5v-197.007c0-23.118-18.808-41.927-41.927-41.927h-1.662c-.983-2.436-2.473-4.608-4.341-6.396v-64.008c0-6.615-2.866-12.896-7.864-17.231l-43.226-37.488c-6.658-5.778-17.115-1.058-17.115 7.812v110.915c-1.867 1.788-3.358 3.961-4.341 6.396h-47.081v-47.266c3.923-9.483 12.268-17.415 8.591-30.547l-10.4-37.155c-2.092-7.472-8.972-12.689-16.73-12.689h-16.528c-7.759 0-14.639 5.218-16.73 12.69l-10.401 37.154c-1.633 5.833-1 12.01 1.784 17.39l6.807 13.157v47.266h-57.767v-19.251c0-7.911 3.625-15.229 9.696-19.578 13.648-9.777 19.841-26.623 15.777-42.918l-8.324-33.372c-1.838-7.37-8.426-12.518-16.021-12.518h-5.717c-11.644 0-21.117 9.474-21.117 21.118v23.96c0 15.054-23.647 14.968-23.647 1.215v-24.905c0-11.696-9.383-21.29-20.917-21.387-.067 0-.134-.001-.202-.001-10.979 0-20.476 7.408-23.136 18.076l-6.938 27.813c-4.104 16.452 2.548 33.922 16.552 43.471 6.286 4.286 10.039 11.655 10.039 19.713v18.563h-41.511v-21.729c0-4.852-.588-9.138-1.965-14.33l-21.376-80.569c-1.75-6.597-7.511-11.028-14.335-11.028s-12.585 4.432-14.335 11.028l-21.375 80.57c-1.377 5.192-1.965 9.479-1.965 14.33v21.729h-.326c-23.118 0-41.926 18.809-41.926 41.927v296.11c0 23.118 18.808 41.927 41.927 41.927h428.146c23.119 0 41.927-18.809 41.927-41.927v-64.037c0-4.143-3.358-7.5-7.5-7.5s-7.5 3.357-7.5 7.5v64.037c0 14.848-12.079 26.927-26.927 26.927h-428.146c-14.848 0-26.927-12.079-26.927-26.927v-152.65h482v53.547c0 4.142 3.358 7.5 7.5 7.5zm-424.571-358.593 8.812 33.217h-17.626zm-12.794 48.217h25.585c8.806 33.295 8.627 32.28 9.123 34.713h-43.833c.501-2.453.344-1.517 9.125-34.713zm35.466 234.329h-45.349v-84.648c0-4.143-3.358-7.5-7.5-7.5s-7.5 3.357-7.5 7.5v84.648h-27.252v-128.46c0-14.848 12.079-26.927 26.927-26.927h.326v35.672c0 4.143 3.358 7.5 7.5 7.5s7.5-3.357 7.5-7.5v-64.901h45.348zm56.511 0h-41.511v-155.387h41.511zm137.576-244.156 10.401-37.153c.286-1.021 1.226-1.734 2.286-1.734h16.528c1.06 0 2 .713 2.286 1.733l10.401 37.154c.606 2.165.371 4.457-.662 6.454l-5.549 10.725h-29.481l-5.549-10.725c-1.032-1.997-1.267-4.289-.661-6.454zm32.756 32.178v123.16h-23.609v-123.16zm-111.376 22.34v189.638h-43.957v-188.95c0-12.977-6.159-24.941-16.481-32.032-8.843-6.075-13.228-16.807-10.632-27.217l7.014-28.118c.987-3.958 4.511-6.706 8.585-6.706.025 0 .05 0 .075.001 3.332.027 6.042 2.893 6.042 6.387v24.905c0 33.691 53.647 33.751 53.647-1.215v-23.96c0-3.379 2.739-6.118 6.118-6.118 4.053 0 7.585 2.759 8.566 6.692l7.006 28.089c2.547 10.21-1.615 20.758-10.145 26.92-9.919 7.167-15.838 19-15.838 31.684zm59.077 189.638h-44.076v-155.387h57.767v66.569h-2.848c-13.005 0-23.585 10.58-23.585 23.585 0 9.097 5.18 17.002 12.743 20.934v44.299zm65.989 0h-50.99v-41.647h50.99zm4.158-56.648h-59.305c-4.734 0-8.585-3.852-8.585-8.585s3.851-8.585 8.585-8.585h59.305c4.734 0 8.585 3.852 8.585 8.585s-3.851 8.585-8.585 8.585zm42.897 56.648h-32.055v-44.298c7.562-3.933 12.743-11.838 12.743-20.934 0-13.005-10.58-23.585-23.585-23.585h-2.848v-66.569h45.745zm20.677-277.489 35.512 30.798c1.711 1.485 2.693 3.636 2.693 5.9v17.738l-38.205-33.134zm0 41.158 38.205 33.134v21.306h-38.205zm43.882 236.331h-49.559v-163.547c0-1.845 1.5-3.345 3.345-3.345h42.869c6.487 0 1.858 1.524 3.345 166.892zm15 0v-155.387h.326c14.848 0 26.927 12.079 26.927 26.927v128.46z" fill="#ff0000" data-original="#000000" style="" class=""/></g></g></g></svg>
