<svg xmlns="http://www.w3.org/2000/svg" width="512" height="512" viewBox="0 0 512.17 512.17"><g fill="red" xmlns="http://www.w3.org/2000/svg"><path d="M510.427 297.333c-2.438-6.515-7.652-11.939-13.993-14.762l-20.827-10.032-42.388-20.425-.015-.008-2.71-1.305-1.444-.696-113.665-59.249a83.162 83.162 0 00-39.129-9.82h-108.16c-.034 0-.068.004-.103.004h-60.477c-1.477 0-2.935.327-4.27.957l-49.433 23.338-.003.001-42.053 19.854c-6.276 2.962-10.562 8.99-11.42 15.779a9.987 9.987 0 00-.337 2.51v55.404c0 .615.064 1.213.17 1.797v20c0 11.148 9.069 20.218 20.218 20.218h34.528l17.023 15.004 22.216 32.088a10 10 0 008.222 4.308h54.412a9.997 9.997 0 008.479-4.7l17.229-27.565h142.921l19.356 27.958a10 10 0 008.222 4.308h54.412a10 10 0 008.48-4.7l17.228-27.565h52.556c14.61 0 26.497-11.887 26.497-26.497v-26.748a26.462 26.462 0 00-1.742-9.456zm-42.887-6.48h-23.492a5.183 5.183 0 01-5.178-5.178v-8.632l28.67 13.81zm-191.285-89.814a63.115 63.115 0 0122.073 4.012 62.652 62.652 0 017.649 3.456l.105.055 81.635 42.553H281.606l-20.988-15.673a10.004 10.004 0 00-5.983-1.987h-26.229l-34.865-32.416h82.714zm-160.443 0l33.415 32.416H88.394l-13.97-15.734 35.334-16.682h6.054zM20.17 264.771l12.766 10.484v13.629H20.17v-24.113zm131.076 107.527h-43.63l-8.492-12.266h59.788l-7.666 12.266zM98.08 340.032l7.666-12.266h43.631l8.492 12.266H98.08zm303.787 32.266h-43.631l-8.492-12.266h59.789l-7.666 12.266zm-53.166-32.266l7.666-12.266h43.629l8.492 12.266h-59.787zm136.972 0h-52.858l-19.357-27.958a10 10 0 00-8.222-4.308h-54.411a9.997 9.997 0 00-8.479 4.7l-17.229 27.565H182.194l-19.356-27.958a10 10 0 00-8.222-4.308h-54.412a10 10 0 00-8.48 4.7l-13.788 22.061-12.63-11.132a10.001 10.001 0 00-6.612-2.498H20.388a.219.219 0 01-.218-.218v-11.797h22.766c5.522 0 10-4.478 10-10v-28.356c0-2.993-1.341-5.828-3.653-7.728L23.606 241.71l31.973-15.095 20.843 23.477a10.003 10.003 0 007.479 3.36h89.997c4.072 0 7.737-2.47 9.268-6.243a10.003 10.003 0 00-2.305-10.935l-36.324-35.238h19.633l53.497 49.739a10 10 0 006.81 2.677h26.839l20.988 15.673a10.004 10.004 0 005.983 1.987H418.87v14.56c0 13.883 11.295 25.178 25.178 25.178h48.122v22.683a6.504 6.504 0 01-6.497 6.499zM176.49 80.65c16.943-16.935 39.462-26.262 63.41-26.262 23.989 0 46.527 9.352 63.464 26.331a9.966 9.966 0 007.08 2.938c2.555 0 5.11-.973 7.062-2.92 3.911-3.9 3.919-10.231.019-14.142-20.716-20.77-48.283-32.208-77.624-32.208-29.288 0-56.829 11.406-77.549 32.117-3.906 3.904-3.907 10.235-.003 14.142 3.902 3.907 10.235 3.91 14.141.004z" data-original="#000000"/><path d="M278.215 115.888a9.973 9.973 0 007.057-2.914c3.913-3.897 3.926-10.229.029-14.143-12.11-12.161-28.234-18.858-45.4-18.858-17.111 0-33.203 6.663-45.312 18.761-3.906 3.904-3.909 10.235-.006 14.143 3.904 3.905 10.235 3.908 14.143.006 8.331-8.325 19.402-12.909 31.175-12.909 11.809 0 22.898 4.606 31.229 12.972a9.97 9.97 0 007.085 2.942zm-30 12.577c-2.231-3.314-6.347-5.029-10.271-4.25-4.173.829-7.379 4.296-7.959 8.496-.578 4.182 1.711 8.411 5.49 10.265 3.704 1.817 8.248 1.154 11.263-1.671 3.522-3.301 4.155-8.827 1.477-12.84zm65.76 160.444h-50.184l-17.393-15.405a10.002 10.002 0 00-6.631-2.515h-77.919c-5.522 0-10 4.478-10 10s4.478 10 10 10h74.127l17.393 15.405a10.002 10.002 0 006.631 2.515h53.976c5.522 0 10-4.478 10-10s-4.478-10-10-10zm-187.93-16.234c-3.574-2.385-8.396-2.179-11.765.481-3.313 2.616-4.638 7.234-3.192 11.203 1.433 3.931 5.21 6.626 9.407 6.626 4.133 0 7.877-2.621 9.35-6.472 1.631-4.265.028-9.329-3.8-11.838zm-10.899 131.144c-5.522 0-10 4.478-10 10v21.585c0 5.522 4.478 10 10 10s10-4.478 10-10v-21.585c0-5.522-4.477-10-10-10zm32.931 10.793c-5.522 0-10 4.478-10 10v43.169c0 5.522 4.478 10 10 10s10-4.478 10-10v-43.169c0-5.522-4.477-10-10-10zm215.186-10.793c-5.522 0-10 4.478-10 10v44.519c0 5.522 4.478 10 10 10s10-4.478 10-10v-44.519c0-5.522-4.478-10-10-10zm33.762 8.62c-5.522 0-10 4.478-10 10v17.886c0 5.522 4.478 10 10 10s10-4.478 10-10v-17.886c0-5.522-4.477-10-10-10z" data-original="#000000"/></g></svg>